<svg width="20" height="20" viewBox="0 0 20 20" fill="none" xmlns="http://www.w3.org/2000/svg">
<path fill-rule="evenodd" clip-rule="evenodd" d="M19.905 11.343L19.897 11.4C19.215 16.255 15.04 19.996 9.998 19.996C6.414 19.996 3.268 18.106 1.503 15.27L1.5 17.795C1.5 18.21 1.164 18.545 0.75 18.545C0.336 18.545 0 18.209 0 17.795V13.746C0 13.332 0.336 12.996 0.75 12.996H4.783C5.197 12.996 5.533 13.332 5.533 13.746C5.533 14.16 5.197 14.496 4.783 14.496L2.792 14.501C4.294 16.899 6.961 18.496 9.998 18.496C14.231 18.496 17.744 15.394 18.389 11.343C18.423 11.127 18.449 10.908 18.467 10.687C18.499 10.297 18.823 9.997 19.214 9.997C19.774 9.997 19.987 10.506 19.963 10.808C19.949 10.988 19.929 11.167 19.905 11.345V11.343ZM0.114 8.482L0.123 8.426C0.877 3.654 5.013 0 9.997 0C13.581 0 16.727 1.89 18.492 4.726L18.495 2.201C18.495 1.786 18.831 1.451 19.245 1.451C19.659 1.451 19.995 1.787 19.995 2.201V6.25C19.995 6.664 19.659 7 19.245 7H15.212C14.798 7 14.462 6.664 14.462 6.25C14.462 5.836 14.798 5.5 15.212 5.5L17.203 5.495C15.701 3.097 13.034 1.5 9.997 1.5C5.824 1.5 2.351 4.514 1.635 8.482C1.586 8.753 1.55 9.029 1.528 9.309C1.496 9.699 1.172 9.999 0.781 9.999C0.221 9.999 0.00800006 9.49 0.0320001 9.188C0.0510001 8.949 0.0790001 8.713 0.114 8.48V8.482ZM12.3955 11.3496V10.6074H11.4043V5.89062H11.1797H10.501H10.4424L7.25879 10.8174V11.3496H10.501V13H11.4043V11.3496H12.3955ZM10.501 7.11398L10.3887 7.31641L8.28418 10.6074H10.501V7.11398Z" fill="black"/>
</svg>
