<svg width="512" height="512" viewBox="0 0 512 512" fill="none" xmlns="http://www.w3.org/2000/svg">
<path d="M0 0H512V512H0V0Z" fill="url(#paint0_linear_6_87)"/>
<path d="M73.1776 215.636L97.0412 297.682H97.9503L121.814 215.636H157.496L119.087 332H75.9048L37.4957 215.636H73.1776Z" fill="white"/>
<path d="M236.928 254.045C236.435 252.038 235.659 250.277 234.598 248.761C233.537 247.208 232.212 245.902 230.621 244.841C229.068 243.742 227.25 242.928 225.166 242.398C223.121 241.83 220.867 241.545 218.405 241.545C213.102 241.545 208.575 242.814 204.825 245.352C201.113 247.89 198.272 251.545 196.303 256.318C194.371 261.091 193.405 266.848 193.405 273.591C193.405 280.409 194.333 286.242 196.189 291.091C198.045 295.939 200.81 299.652 204.484 302.227C208.159 304.803 212.723 306.091 218.178 306.091C222.988 306.091 226.984 305.39 230.166 303.989C233.386 302.587 235.791 300.598 237.382 298.023C238.973 295.447 239.768 292.417 239.768 288.932L245.223 289.5H218.632V267H270.223V283.136C270.223 293.742 267.969 302.814 263.462 310.352C258.992 317.852 252.818 323.61 244.939 327.625C237.098 331.602 228.102 333.591 217.95 333.591C206.625 333.591 196.681 331.186 188.121 326.375C179.56 321.564 172.875 314.708 168.064 305.807C163.291 296.905 160.905 286.318 160.905 274.045C160.905 264.424 162.363 255.902 165.28 248.477C168.234 241.053 172.325 234.784 177.553 229.67C182.78 224.519 188.822 220.636 195.678 218.023C202.534 215.371 209.882 214.045 217.723 214.045C224.617 214.045 231.018 215.03 236.928 217C242.875 218.932 248.121 221.697 252.666 225.295C257.25 228.856 260.943 233.08 263.746 237.966C266.549 242.852 268.253 248.212 268.859 254.045H236.928Z" fill="white"/>
<path d="M276.615 241.091V215.636H377.751V241.091H342.751V332H311.615V241.091H276.615Z" fill="white"/>
<path d="M468 240C468 175.935 416.065 124 352 124V96C370.91 96 389.636 99.7247 407.106 106.961C424.577 114.198 440.452 124.805 453.823 138.177C467.195 151.548 477.802 167.423 485.039 184.894C492.275 202.364 496 221.09 496 240H468Z" fill="white"/>
<path d="M352 152C400.601 152 440 191.399 440 240H412C412 206.863 385.137 180 352 180V152Z" fill="white"/>
<defs>
<linearGradient id="paint0_linear_6_87" x1="-20.5" y1="140.5" x2="536.5" y2="368" gradientUnits="userSpaceOnUse">
<stop stop-color="#FF0000"/>
<stop offset="1" stop-color="#130000"/>
</linearGradient>
</defs>
</svg>
