<svg width="200" height="200" viewBox="0 0 200 200" fill="none" xmlns="http://www.w3.org/2000/svg">
<path d="M155.492 0H44.5078C19.9268 0 0 19.9268 0 44.5078V155.492C0 180.073 19.9268 200 44.5078 200H155.492C180.073 200 200 180.073 200 155.492V44.5078C200 19.9268 180.073 0 155.492 0Z" fill="white"/>
<path d="M58.9672 112.155V108.86H58.8535C57.0731 111.852 54.3267 113.349 50.6144 113.349C47.0536 113.349 44.061 112.155 41.6366 109.769C39.2122 107.382 38 103.841 38 99.1433V84.881H44.7618V99.1433C44.7618 101.757 45.3868 103.727 46.6369 105.053C47.9248 106.379 49.6674 107.041 51.8645 107.041C54.0237 107.041 55.7473 106.36 57.0352 104.996C58.3232 103.632 58.9672 101.681 58.9672 99.1433V84.881H65.7289V111.985C65.7289 116.606 64.441 120.035 61.8651 122.27C59.2892 124.543 55.9177 125.679 51.7508 125.679C48.3415 125.679 45.4247 124.865 43.0003 123.236C40.5759 121.645 38.9849 119.239 38.2273 116.019H44.9891C46.0876 118.557 48.3415 119.826 51.7508 119.826C56.5617 119.826 58.9672 117.269 58.9672 112.155Z" fill="#2898FF"/>
<path d="M101.161 99.1433V112.951H94.9672V107.723H94.8536C94.0581 109.542 92.7891 111 91.0465 112.099C89.304 113.159 87.2584 113.69 84.9098 113.69C81.2353 113.69 77.9965 112.402 75.1933 109.826C72.428 107.212 71.0453 103.575 71.0453 98.916C71.0453 94.6354 72.4469 91.1125 75.2501 88.3472C78.0912 85.544 81.7278 84.1424 86.1599 84.1424C90.6298 84.1424 94.2475 85.525 97.0128 88.2903C99.7781 91.0178 101.161 94.6354 101.161 99.1433ZM80.1368 105.053C81.6899 106.606 83.6976 107.382 86.1599 107.382C88.6221 107.382 90.6109 106.606 92.1261 105.053C93.6414 103.462 94.399 101.416 94.399 98.916C94.399 96.4158 93.6414 94.3892 92.1261 92.8361C90.6109 91.2451 88.6221 90.4496 86.1599 90.4496C83.6976 90.4496 81.6899 91.2451 80.1368 92.8361C78.6215 94.3892 77.8639 96.4158 77.8639 98.916C77.8639 101.416 78.6215 103.462 80.1368 105.053Z" fill="#2898FF"/>
<path d="M129.708 101.416V102.155C129.708 105.943 128.666 108.822 126.583 110.792C124.537 112.724 121.753 113.69 118.23 113.69C114.707 113.69 111.904 112.724 109.82 110.792C107.775 108.822 106.752 105.943 106.752 102.155V75.5055H113.514V84.881H128.003V91.0178H113.514V102.155C113.514 105.64 115.086 107.382 118.23 107.382C121.374 107.382 122.946 105.64 122.946 102.155V101.416H129.708Z" fill="#2898FF"/>
<path d="M155.131 99.4842V84.881C158.866 84.881 161.893 87.9084 161.893 91.6428V99.4842C161.893 104.068 160.643 107.591 158.143 110.053C155.642 112.477 152.271 113.69 148.028 113.69C143.786 113.69 140.414 112.477 137.914 110.053C135.414 107.629 134.164 104.106 134.164 99.4842V91.6428C134.164 87.9084 137.191 84.881 140.926 84.881V99.4842C140.926 102.098 141.551 104.068 142.801 105.394C144.089 106.719 145.831 107.382 148.028 107.382C150.226 107.382 151.949 106.719 153.199 105.394C154.487 104.068 155.131 102.098 155.131 99.4842Z" fill="#2898FF"/>
<path d="M173.488 70.2924C177.319 74.2738 179.395 79.0208 179.689 84.5454C179.713 85.0206 179.765 85.4967 179.759 85.9709C179.739 87.5499 178.625 88.7079 177.148 88.7088C175.697 88.7097 174.576 87.5995 174.533 86.0389C174.477 83.948 174.234 81.8939 173.493 79.9252C171.467 74.5394 167.639 71.1637 162.077 69.7409C160.687 69.3853 159.267 69.2612 157.833 69.2299C156.192 69.1941 155.037 68.0829 155.053 66.5913C155.069 65.0693 156.272 63.9765 157.941 64.0004C162.938 64.0693 167.492 65.4847 171.486 68.5379C172.188 69.0746 172.891 69.6233 173.488 70.2924Z" fill="#2898FF"/>
<path d="M169.048 88.4871C168.548 88.9264 167.682 89.1553 166.714 88.8511C165.772 88.556 165.166 87.908 164.967 86.9375C164.869 86.4531 164.879 85.9485 164.815 85.4559C164.282 81.4044 161.647 79.0156 157.575 78.8833C155.626 78.8199 154.41 77.3171 154.882 75.5561C155.181 74.443 156.142 73.6471 157.383 73.6581C162.423 73.7022 167.348 76.3364 169.246 81.6333C169.711 82.9292 169.979 84.2546 170.093 85.6185C170.175 86.5992 170.072 87.5275 169.048 88.4871Z" fill="#2898FF"/>
</svg>
