<svg width="24" height="12" viewBox="0 0 24 12" fill="none" xmlns="http://www.w3.org/2000/svg">
<path d="M8.64495 7.23933H6.46733C6.4382 7.6666 6.34352 8.02347 6.18329 8.30993C6.02792 8.5964 5.80214 8.81246 5.50597 8.95812C5.20979 9.10378 4.8335 9.17661 4.3771 9.17661C3.98867 9.17661 3.65608 9.10621 3.37932 8.96541C3.10742 8.81975 2.88408 8.60611 2.70929 8.3245C2.53935 8.03803 2.41311 7.68845 2.33057 7.27574C2.24803 6.85818 2.20676 6.37508 2.20676 5.82642V5.07627C2.20676 4.51305 2.25046 4.02266 2.33785 3.6051C2.4301 3.18268 2.56848 2.8331 2.75298 2.55634C2.93749 2.27959 3.16569 2.07323 3.43759 1.93729C3.70949 1.80134 4.02751 1.73336 4.39166 1.73336C4.8772 1.73336 5.26563 1.81105 5.55695 1.96642C5.85313 2.11693 6.07404 2.34271 6.2197 2.64374C6.36537 2.93992 6.45033 3.30164 6.47461 3.72891H8.65952C8.59154 3.01032 8.38762 2.36941 8.04774 1.80619C7.71273 1.24297 7.23933 0.801133 6.62755 0.48068C6.02064 0.160227 5.27534 0 4.39166 0C3.72648 0 3.12442 0.118956 2.58547 0.356868C2.04653 0.594781 1.58284 0.934655 1.19442 1.37649C0.810844 1.81833 0.514667 2.35485 0.305887 2.98604C0.101962 3.61238 0 4.31398 0 5.09084V5.82642C0 6.60328 0.0995347 7.30488 0.298604 7.93122C0.497673 8.55756 0.786567 9.09165 1.16528 9.53348C1.54886 9.97532 2.01012 10.3152 2.54906 10.5531C3.088 10.7862 3.69735 10.9027 4.3771 10.9027C5.24621 10.9027 5.98908 10.7473 6.60571 10.4366C7.22719 10.1258 7.7103 9.69371 8.05503 9.1402C8.40461 8.58669 8.60125 7.95306 8.64495 7.23933Z" fill="black"/>
<path fill-rule="evenodd" clip-rule="evenodd" d="M18.7902 5.70989V5.20736C18.7902 4.39652 18.6785 3.67307 18.4552 3.03702C18.2367 2.39612 17.926 1.84989 17.523 1.39834C17.1248 0.946793 16.649 0.602064 16.0955 0.364151C15.5468 0.126239 14.9375 0.00728303 14.2674 0.00728303C13.6023 0.00728303 12.9929 0.126239 12.4394 0.364151C11.8908 0.602064 11.4149 0.946793 11.0119 1.39834C10.6138 1.84989 10.3055 2.39612 10.087 3.03702C9.8685 3.67307 9.75926 4.39652 9.75926 5.20736V5.70989C9.75926 6.51588 9.8685 7.23933 10.087 7.88023C10.3103 8.52114 10.6235 9.06737 11.0265 9.51892C11.4295 9.96561 11.9053 10.3079 12.454 10.5458C13.0075 10.7837 13.6168 10.9027 14.282 10.9027C14.9521 10.9027 15.5614 10.7837 16.1101 10.5458C16.6636 10.3079 17.1394 9.96561 17.5375 9.51892C17.9357 9.06737 18.244 8.52114 18.4625 7.88023C18.681 7.23933 18.7902 6.51588 18.7902 5.70989ZM16.5835 5.1928V5.70989C16.5835 6.26826 16.5325 6.7635 16.4305 7.19563C16.3285 7.6229 16.1805 7.98462 15.9862 8.2808C15.792 8.57212 15.5517 8.79304 15.2652 8.94356C14.9788 9.09407 14.651 9.16933 14.282 9.16933C13.913 9.16933 13.5853 9.09407 13.2988 8.94356C13.0123 8.79304 12.7696 8.57212 12.5705 8.2808C12.3714 7.98462 12.2209 7.6229 12.119 7.19563C12.017 6.7635 11.966 6.26826 11.966 5.70989V5.1928C11.966 4.62958 12.017 4.13433 12.119 3.70706C12.2209 3.27979 12.369 2.92049 12.5632 2.62917C12.7623 2.33785 13.0026 2.11936 13.2842 1.9737C13.5707 1.82318 13.8984 1.74793 14.2674 1.74793C14.6365 1.74793 14.9642 1.82318 15.2507 1.9737C15.5371 2.11936 15.7799 2.33785 15.979 2.62917C16.178 2.92049 16.3285 3.27979 16.4305 3.70706C16.5325 4.13433 16.5835 4.62958 16.5835 5.1928Z" fill="black"/>
<path d="M25.8256 12V10.9075H22.7959L24.0243 9.52863C24.2606 9.2891 24.4758 9.05766 24.67 8.83431C24.8643 8.61096 25.0293 8.39086 25.1653 8.17398C25.3045 7.95387 25.4113 7.73377 25.4857 7.51366C25.5602 7.29031 25.5974 7.06211 25.5974 6.82905C25.5974 6.41473 25.5084 6.05867 25.3304 5.76087C25.1556 5.45984 24.8966 5.23002 24.5535 5.07141C24.2136 4.90957 23.7961 4.82865 23.3008 4.82865C22.7991 4.82865 22.3654 4.93385 21.9996 5.14424C21.6338 5.35141 21.3506 5.6314 21.1499 5.98422C20.9492 6.33381 20.8489 6.719 20.8489 7.13979H22.2521C22.2521 6.90674 22.2909 6.69796 22.3686 6.51345C22.4495 6.32895 22.5661 6.18491 22.7182 6.08133C22.8736 5.97775 23.0581 5.92596 23.2717 5.92596C23.4724 5.92596 23.6407 5.96804 23.7767 6.0522C23.9158 6.13635 24.021 6.25612 24.0923 6.41149C24.1635 6.56363 24.1991 6.74651 24.1991 6.96015C24.1991 7.10257 24.1683 7.25309 24.1068 7.41169C24.0486 7.56706 23.9531 7.74348 23.8204 7.94093C23.6876 8.13514 23.5064 8.36011 23.2766 8.61582L20.9897 11.0678V12H25.8256Z" fill="black"/>
</svg>
