<svg width="33" height="16" viewBox="0 0 33 16" fill="none" xmlns="http://www.w3.org/2000/svg">
<path d="M11.3101 9.39486H8.58807C8.55165 9.92895 8.4333 10.375 8.23302 10.7331C8.0388 11.0912 7.75659 11.3613 7.38637 11.5434C7.01615 11.7254 6.54578 11.8165 5.97528 11.8165C5.48974 11.8165 5.07401 11.7285 4.72806 11.5525C4.38819 11.3704 4.109 11.1033 3.89051 10.7513C3.67809 10.3932 3.52029 9.95626 3.41712 9.44038C3.31394 8.91843 3.26235 8.31455 3.26235 7.62873V6.69104C3.26235 5.98701 3.31698 5.37403 3.42622 4.85208C3.54154 4.32406 3.71451 3.88707 3.94514 3.54113C4.17577 3.19519 4.46102 2.93725 4.80089 2.76731C5.14077 2.59737 5.5383 2.5124 5.99349 2.5124C6.60041 2.5124 7.08594 2.60951 7.45009 2.80372C7.82031 2.99187 8.09646 3.27409 8.27854 3.65038C8.46061 4.0206 8.56682 4.47275 8.59717 5.00684H11.3283C11.2433 4.1086 10.9884 3.30747 10.5636 2.60344C10.1448 1.89942 9.55307 1.34712 8.78835 0.946553C8.0297 0.545986 7.09808 0.345703 5.99349 0.345703C5.16201 0.345703 4.40943 0.494398 3.73575 0.791789C3.06207 1.08918 2.48246 1.51402 1.99693 2.06632C1.51746 2.61861 1.14724 3.28926 0.886265 4.07825C0.631359 4.86118 0.503906 5.73818 0.503906 6.70925V7.62873C0.503906 8.5998 0.628325 9.4768 0.877161 10.2597C1.126 11.0426 1.48711 11.7103 1.96051 12.2626C2.43998 12.8149 3.01655 13.2397 3.69023 13.5371C4.36391 13.8284 5.12559 13.9741 5.97528 13.9741C7.06166 13.9741 7.99025 13.7799 8.76104 13.3914C9.53789 13.003 10.1418 12.4628 10.5727 11.771C11.0097 11.0791 11.2555 10.287 11.3101 9.39486Z" fill="black"/>
<path fill-rule="evenodd" clip-rule="evenodd" d="M23.9917 7.48307V6.85491C23.9917 5.84135 23.8521 4.93704 23.5729 4.14198C23.2998 3.34085 22.9114 2.65806 22.4076 2.09363C21.9099 1.52919 21.3152 1.09828 20.6233 0.800892C19.9374 0.503502 19.1758 0.354807 18.3382 0.354807C17.5067 0.354807 16.7451 0.503502 16.0532 0.800892C15.3673 1.09828 14.7726 1.52919 14.2688 2.09363C13.7712 2.65806 13.3858 3.34085 13.1126 4.14198C12.8395 4.93704 12.703 5.84135 12.703 6.85491V7.48307C12.703 8.49055 12.8395 9.39486 13.1126 10.196C13.3918 10.9971 13.7833 11.6799 14.287 12.2443C14.7908 12.8027 15.3856 13.2306 16.0714 13.528C16.7633 13.8254 17.5249 13.9741 18.3564 13.9741C19.194 13.9741 19.9557 13.8254 20.6415 13.528C21.3334 13.2306 21.9281 12.8027 22.4258 12.2443C22.9235 11.6799 23.3089 10.9971 23.582 10.196C23.8551 9.39486 23.9917 8.49055 23.9917 7.48307ZM21.2332 6.8367V7.48307C21.2332 8.18103 21.1695 8.80008 21.042 9.34024C20.9146 9.87433 20.7295 10.3265 20.4867 10.6967C20.2439 11.0609 19.9435 11.337 19.5854 11.5251C19.2274 11.7133 18.8177 11.8074 18.3564 11.8074C17.8952 11.8074 17.4855 11.7133 17.1274 11.5251C16.7693 11.337 16.4659 11.0609 16.217 10.6967C15.9682 10.3265 15.7801 9.87433 15.6526 9.34024C15.5251 8.80008 15.4614 8.18103 15.4614 7.48307V6.8367C15.4614 6.13267 15.5251 5.51362 15.6526 4.97953C15.7801 4.44544 15.9652 3.99632 16.2079 3.63217C16.4568 3.26802 16.7572 2.9949 17.1092 2.81283C17.4673 2.62468 17.877 2.53061 18.3382 2.53061C18.7995 2.53061 19.2091 2.62468 19.5672 2.81283C19.9253 2.9949 20.2288 3.26802 20.4776 3.63217C20.7264 3.99632 20.9146 4.44544 21.042 4.97953C21.1695 5.51362 21.2332 6.13267 21.2332 6.8367Z" fill="black"/>
<path d="M32.7859 15.3457V13.9801H28.9987L30.5343 12.2565C30.8296 11.9571 31.0987 11.6678 31.3415 11.3886C31.5842 11.1094 31.7906 10.8343 31.9605 10.5632C32.1345 10.288 32.268 10.0129 32.3611 9.73777C32.4541 9.45859 32.5007 9.17334 32.5007 8.88202C32.5007 8.36411 32.3894 7.91904 32.1669 7.5468C31.9484 7.17051 31.6247 6.88323 31.1958 6.68497C30.771 6.48266 30.249 6.38151 29.6299 6.38151C29.0028 6.38151 28.4606 6.51301 28.0034 6.77601C27.5462 7.03496 27.1922 7.38495 26.9413 7.82598C26.6904 8.26296 26.565 8.74445 26.565 9.27045H28.319C28.319 8.97912 28.3676 8.71815 28.4647 8.48752C28.5658 8.25689 28.7115 8.07684 28.9016 7.94736C29.0959 7.81789 29.3265 7.75315 29.5935 7.75315C29.8444 7.75315 30.0548 7.80575 30.2247 7.91095C30.3987 8.01615 30.5302 8.16585 30.6192 8.36007C30.7082 8.55024 30.7527 8.77884 30.7527 9.04589C30.7527 9.22392 30.7143 9.41206 30.6374 9.61032C30.5646 9.80453 30.4452 10.025 30.2793 10.2719C30.1135 10.5146 29.8869 10.7958 29.5996 11.1155L26.741 14.1804V15.3457H32.7859Z" fill="black"/>
</svg>
