<svg width="25" height="15" viewBox="0 0 25 15" fill="none" xmlns="http://www.w3.org/2000/svg">
<path fill-rule="evenodd" clip-rule="evenodd" d="M8.03165 0.179254C7.5417 0.074356 6.92974 0 6.22903 0C2.77612 0 0 2.16656 0 6.05993C0 9.30985 2.0312 11.7646 5.97526 11.7646C6.72314 11.7646 7.37755 11.6907 7.89653 11.5858C8.46507 11.4705 8.83477 10.9189 8.72492 10.3491C8.61706 9.79172 8.08329 9.42522 7.52587 9.52444C7.15321 9.59056 6.74872 9.63198 6.36447 9.63198C4.06231 9.63198 2.7084 8.19283 2.7084 5.90762C2.7084 3.36864 4.29953 2.13282 6.3476 2.13282C6.78302 2.13282 7.17599 2.17911 7.52475 2.25107C8.09201 2.36796 8.65184 2.01936 8.79559 1.45818L8.80391 1.42516C8.87283 1.15699 8.82909 0.872683 8.68326 0.637622C8.53743 0.402402 8.30221 0.23706 8.03165 0.179254ZM15.1138 0C11.7452 0 9.56161 2.55633 9.56161 5.97526C9.56161 9.22526 11.5419 11.7814 14.9275 11.7814C18.2621 11.7814 20.5306 9.51325 20.5306 5.77242C20.5305 2.62397 18.6174 0 15.1138 0ZM15.063 9.73296C13.3363 9.73296 12.2869 8.15885 12.2869 5.92433C12.2869 3.70725 13.3024 2.04839 15.046 2.04839C16.8235 2.04839 17.8052 3.80854 17.8052 5.85701C17.8052 8.07418 16.8065 9.73296 15.063 9.73296ZM22.1092 13.9428H23.6524C23.9445 13.9428 24.1812 14.1795 24.1813 14.4716C24.1813 14.7633 23.9446 15 23.6525 15H20.826C20.526 15 20.2826 14.7567 20.2826 14.4566C20.2826 14.3072 20.3459 14.1651 20.4566 14.0647L20.9929 13.5792C22.194 12.5054 22.7774 11.8881 22.7943 11.2452C22.7943 10.7969 22.5237 10.4416 21.8894 10.4416C21.6143 10.4416 21.3594 10.5214 21.1376 10.6312C21.0239 10.6878 20.8916 10.6944 20.7731 10.649C20.6545 10.6032 20.5606 10.5103 20.514 10.392L20.502 10.3619C20.4074 10.1227 20.5119 9.85073 20.7421 9.73544C21.1263 9.54291 21.6122 9.40995 22.1514 9.40995C23.3947 9.40995 24.0797 10.1371 24.0797 11.1352C24.0797 12.0571 23.4116 12.7929 22.6166 13.5032L22.1092 13.9258V13.9428Z" fill="black"/>
</svg>
