<svg width="24" height="12" viewBox="0 0 24 12" fill="none" xmlns="http://www.w3.org/2000/svg">
<path d="M2.57143 4.9533V12H0V3.08242H2.41484L2.57143 4.9533ZM2.24176 7.22802L1.59066 7.24451C1.59066 6.61813 1.66484 6.04396 1.81319 5.52198C1.96703 4.99451 2.18956 4.53571 2.48077 4.1456C2.77198 3.75549 3.13187 3.4533 3.56044 3.23901C3.99451 3.02473 4.49451 2.91758 5.06044 2.91758C5.45604 2.91758 5.81593 2.97802 6.14011 3.0989C6.46429 3.21429 6.74176 3.39835 6.97253 3.6511C7.20879 3.89835 7.39011 4.22253 7.51648 4.62363C7.64286 5.01923 7.70604 5.49451 7.70604 6.04945V12H5.13462V6.36264C5.13462 5.96703 5.08517 5.66758 4.98626 5.46429C4.89286 5.25549 4.75549 5.11264 4.57418 5.03571C4.39286 4.95879 4.17582 4.92033 3.92308 4.92033C3.64835 4.92033 3.40385 4.98077 3.18956 5.10165C2.98077 5.21703 2.80495 5.37912 2.66209 5.58791C2.51923 5.7967 2.41209 6.04121 2.34066 6.32143C2.27473 6.60165 2.24176 6.90385 2.24176 7.22802ZM7.44231 7.09615L6.62637 7.16209C6.62637 6.55769 6.6978 5.99725 6.84066 5.48077C6.98352 4.96429 7.1978 4.51648 7.48352 4.13736C7.76923 3.75275 8.12363 3.4533 8.5467 3.23901C8.97528 3.02473 9.47253 2.91758 10.0385 2.91758C10.456 2.91758 10.8352 2.97802 11.1758 3.0989C11.522 3.21978 11.8187 3.41484 12.0659 3.68407C12.3187 3.9533 12.5137 4.30769 12.6511 4.74725C12.7885 5.18132 12.8571 5.71429 12.8571 6.34615V12H10.2692V6.34615C10.2692 5.95604 10.2198 5.65934 10.1209 5.45604C10.0275 5.25275 9.89011 5.11264 9.70879 5.03571C9.53297 4.95879 9.32143 4.92033 9.07418 4.92033C8.79945 4.92033 8.56044 4.97802 8.35714 5.09341C8.15385 5.2033 7.98352 5.35714 7.84615 5.55494C7.70879 5.74725 7.60714 5.97528 7.54121 6.23901C7.47528 6.50275 7.44231 6.78846 7.44231 7.09615Z" fill="black"/>
<path d="M19.6978 2.28297L16.5989 12H13.7308L18.1731 0H19.9863L19.6978 2.28297ZM22.2692 12L19.1621 2.28297L18.8407 0H20.6786L25.1374 12H22.2692ZM22.1374 7.53297V9.60989H15.8819V7.53297H22.1374Z" fill="black"/>
</svg>
