<svg width="33" height="16" viewBox="0 0 33 16" fill="none" xmlns="http://www.w3.org/2000/svg">
<path d="M3.82952 6.66037V15.4688H0.615234V4.32177H3.63378L3.82952 6.66037ZM3.41743 9.50378L2.60356 9.52438C2.60356 8.74141 2.69628 8.0237 2.88172 7.37122C3.07403 6.71188 3.35218 6.13839 3.7162 5.65076C4.08021 5.16312 4.53007 4.78537 5.06578 4.51751C5.60837 4.24966 6.23337 4.11573 6.94078 4.11573C7.43529 4.11573 7.88515 4.19128 8.29037 4.34238C8.69559 4.48661 9.04243 4.71669 9.33089 5.03262C9.62622 5.34169 9.85287 5.74691 10.0108 6.24828C10.1688 6.74279 10.2478 7.33688 10.2478 8.03056V15.4688H7.0335V8.42205C7.0335 7.92754 6.97169 7.55323 6.84806 7.29911C6.73131 7.03812 6.5596 6.85955 6.33295 6.76339C6.10631 6.66724 5.83501 6.61916 5.51908 6.61916C5.17567 6.61916 4.87004 6.69471 4.60218 6.84581C4.3412 6.99004 4.12142 7.19265 3.94284 7.45364C3.76427 7.71463 3.63034 8.02026 3.54106 8.37054C3.45864 8.72081 3.41743 9.09856 3.41743 9.50378ZM9.91812 9.33894L8.8982 9.42136C8.8982 8.66587 8.98749 7.96532 9.16606 7.31971C9.34463 6.67411 9.61249 6.11435 9.96963 5.64045C10.3268 5.15968 10.7698 4.78537 11.2986 4.51751C11.8343 4.24966 12.4559 4.11573 13.1633 4.11573C13.6853 4.11573 14.1592 4.19128 14.585 4.34238C15.0177 4.49348 15.3886 4.73729 15.6977 5.07383C16.0136 5.41037 16.2574 5.85337 16.4291 6.40282C16.6008 6.9454 16.6867 7.61161 16.6867 8.40144V15.4688H13.4518V8.40144C13.4518 7.91381 13.39 7.54293 13.2663 7.28881C13.1496 7.03468 12.9779 6.85955 12.7512 6.76339C12.5314 6.66724 12.267 6.61916 11.958 6.61916C11.6145 6.61916 11.3158 6.69128 11.0617 6.83551C10.8075 6.97287 10.5946 7.16518 10.4229 7.41243C10.2512 7.65282 10.1242 7.93784 10.0417 8.26751C9.95933 8.59718 9.91812 8.95433 9.91812 9.33894Z" fill="black"/>
<path d="M25.2375 3.32246L21.3639 15.4688H17.7787L23.3316 0.46875H25.5981L25.2375 3.32246ZM28.4518 15.4688L24.5678 3.32246L24.1661 0.46875H26.4634L32.0369 15.4688H28.4518ZM28.2869 9.88496V12.4811H20.4676V9.88496H28.2869Z" fill="black"/>
</svg>
