<svg width="18" height="24" viewBox="0 0 18 24" fill="none" xmlns="http://www.w3.org/2000/svg">
<path d="M4.5 0C3.67031 0 3 0.670312 3 1.5V6H6V1.5C6 0.670312 5.32969 0 4.5 0ZM13.5 0C12.6703 0 12 0.670312 12 1.5V6H15V1.5C15 0.670312 14.3297 0 13.5 0ZM1.5 7.5C0.670312 7.5 0 8.17031 0 9C0 9.82969 0.670312 10.5 1.5 10.5V12C1.5 15.6281 4.07812 18.6562 7.5 19.35V22.5C7.5 23.3297 8.17031 24 9 24C9.82969 24 10.5 23.3297 10.5 22.5V19.35C13.9219 18.6562 16.5 15.6281 16.5 12V10.5C17.3297 10.5 18 9.82969 18 9C18 8.17031 17.3297 7.5 16.5 7.5H1.5Z" fill="black"/>
</svg>
