<svg width="24" height="16" viewBox="0 0 24 16" fill="none" xmlns="http://www.w3.org/2000/svg">
<path fill-rule="evenodd" clip-rule="evenodd" d="M23.9959 1.71353C23.9959 0.767411 23.101 0 21.9976 0H2.00646C0.903105 0 0.00815604 0.767411 0.00815604 1.71353V3.42707H24V1.71353H23.9959ZM2.66847 11.8581C2.66847 11.6233 2.89324 11.4306 3.16704 11.4306H6.16651C6.44031 11.4306 6.66508 11.6233 6.66508 11.8581V13.2878C6.66508 13.5226 6.44031 13.7153 6.16651 13.7153H3.16704C2.89324 13.7153 2.66847 13.5226 2.66847 13.2878V11.8581ZM8.00135 11.8581C8.00135 11.6233 8.22612 11.4306 8.49991 11.4306H14.1638C14.4376 11.4306 14.6623 11.6233 14.6623 11.8581V13.2878C14.6623 13.5226 14.4376 13.7153 14.1638 13.7153H8.49991C8.22612 13.7153 8.00135 13.5226 8.00135 13.2878V11.8581ZM0.00406555 14.2865C0.00406555 15.2326 0.899015 16 2.00237 16H21.9935C23.0969 16 23.9918 15.2326 23.9918 14.2865V8H0V14.2865H0.00406555Z" fill="#000"/>
</svg>
