<svg width="20" height="13" viewBox="0 0 20 13" fill="none" xmlns="http://www.w3.org/2000/svg">
<path d="M1.5 0C0.671875 0 0 0.671875 0 1.5C0 1.97188 0.221875 2.41562 0.6 2.7L7.4 7.8C7.75625 8.06563 8.24375 8.06563 8.6 7.8L10.3938 6.45625C11.1406 4.5875 12.8844 3.22813 14.9656 3.025L15.4 2.7C15.7781 2.41562 16 1.97188 16 1.5C16 0.671875 15.3281 0 14.5 0H1.5ZM9.2 8.6C8.4875 9.13438 7.5125 9.13438 6.8 8.6L0 3.5V10C0 11.1031 0.896875 12 2 12H11.2563C10.4719 11.05 10 9.82812 10 8.5C10 8.325 10.0094 8.15312 10.025 7.98125L9.2 8.6ZM20 8.5C20 7.30653 19.5259 6.16193 18.682 5.31802C17.8381 4.47411 16.6935 4 15.5 4C14.3065 4 13.1619 4.47411 12.318 5.31802C11.4741 6.16193 11 7.30653 11 8.5C11 9.69347 11.4741 10.8381 12.318 11.682C13.1619 12.5259 14.3065 13 15.5 13C16.6935 13 17.8381 12.5259 18.682 11.682C19.5259 10.8381 20 9.69347 20 8.5ZM17.6031 7.14688C17.7969 7.34063 17.7969 7.65937 17.6031 7.85312L15.3531 10.1031C15.1594 10.2969 14.8406 10.2969 14.6469 10.1031L13.3969 8.85312C13.2031 8.65937 13.2031 8.34063 13.3969 8.14688C13.5906 7.95313 13.9094 7.95313 14.1031 8.14688L15 9.04375L16.8969 7.14688C17.0906 6.95313 17.4094 6.95313 17.6031 7.14688Z" fill="#000"/>
</svg>
