<svg width="34" height="32" viewBox="0 0 34 32" fill="none" xmlns="http://www.w3.org/2000/svg">
<path fill-rule="evenodd" clip-rule="evenodd" d="M32.8836 18.1524L32.8704 18.2436C31.7437 26.0132 24.8465 32 16.517 32C10.5961 32 5.39882 28.9754 2.48299 24.4369L2.47804 28.4777C2.47804 29.1418 1.92296 29.6779 1.23902 29.6779C0.555081 29.6779 0 29.1402 0 28.4777V21.998C0 21.3355 0.555081 20.7978 1.23902 20.7978H7.90164C8.58558 20.7978 9.14066 21.3355 9.14066 21.998C9.14066 22.6605 8.58558 23.1982 7.90164 23.1982L4.61246 23.2062C7.0938 27.0438 11.4998 29.5995 16.517 29.5995C23.51 29.5995 29.3135 24.6353 30.3791 18.1524C30.4353 17.8068 30.4782 17.4563 30.508 17.1026C30.5608 16.4785 31.0961 15.9984 31.742 15.9984C32.6672 15.9984 33.019 16.813 32.9794 17.2963C32.9563 17.5843 32.9232 17.8708 32.8836 18.1556V18.1524ZM0.188331 13.5739L0.203199 13.4843C1.44883 5.84757 8.2816 0 16.5153 0C22.4362 0 27.6334 3.0246 30.5493 7.56311L30.5542 3.5223C30.5542 2.85817 31.1093 2.32206 31.7932 2.32206C32.4772 2.32206 33.0323 2.85977 33.0323 3.5223V10.002C33.0323 10.6645 32.4772 11.2022 31.7932 11.2022H25.1306C24.4467 11.2022 23.8916 10.6645 23.8916 10.002C23.8916 9.33947 24.4467 8.80176 25.1306 8.80176L28.4198 8.79376C25.9385 4.95619 21.5325 2.40048 16.5153 2.40048C9.6214 2.40048 3.88391 7.22385 2.70106 13.5739C2.62011 14.0076 2.56064 14.4493 2.5243 14.8974C2.47143 15.5215 1.93617 16.0016 1.29023 16.0016C0.365098 16.0016 0.0132163 15.187 0.0528649 14.7037C0.0842534 14.3213 0.13051 13.9436 0.188331 13.5707V13.5739ZM19.5674 21V19.4004H14.9395V16.6592H18.877V15.1006H14.9395V12.6533H19.5605V11.0469H14.9395H14.2695H12.8887V21H14.2695H14.9395H19.5674Z" fill="black"/>
</svg>
