<svg width="683" height="512" viewBox="0 0 683 512" fill="none" xmlns="http://www.w3.org/2000/svg">
<path fill-rule="evenodd" clip-rule="evenodd" d="M341.332 341.333C372.266 341.867 416.798 302.4 439.199 286.133C616.131 157.733 629.598 146.534 670.398 114.534C678.131 108.534 682.665 99.2003 682.665 89.3333V63.9998C682.665 28.6666 653.998 0 618.665 0H64C28.6669 0 0 28.6666 0 63.9998V89.3333C0 99.2006 4.53393 108.4 12.2668 114.534C53.0661 146.4 66.5337 157.733 243.465 286.133C265.867 302.4 310.399 341.867 341.333 341.333H341.332ZM669.731 169.063C639.865 192.263 600.398 221.863 464.398 320.663C437.332 340.396 388.932 384.53 341.332 384.129C293.999 384.396 246.533 341.197 218.399 320.663C82.3992 221.863 42.7991 192.396 12.9335 169.197C7.60014 165.062 1e-05 168.796 1e-05 175.462V447.996C1e-05 483.329 28.6665 511.996 64 511.996H618.665C653.998 511.996 682.665 483.33 682.665 447.996V175.329C682.665 168.796 674.932 164.93 669.731 169.063H669.731Z" fill="#F01421"/>
</svg>
