<svg width="21" height="16" viewBox="0 0 21 16" fill="none" xmlns="http://www.w3.org/2000/svg">
    <path fill-rule="evenodd" clip-rule="evenodd" d="M17.0607 10.8559C16.3365 10.8559 15.749 10.3443 15.749 9.71354C15.749 9.08279 16.3365 8.57118 17.0607 8.57118C17.785 8.57118 18.3725 9.08279 18.3725 9.71354C18.3725 10.3443 17.785 10.8559 17.0607 10.8559ZM18.9157 3.42707H3.27936C2.91723 3.42707 2.62349 3.17127 2.62349 2.85589C2.62349 2.54052 2.91723 2.28471 3.27936 2.28471H19.0284C19.3905 2.28471 19.6842 2.02891 19.6842 1.71353C19.6842 0.767411 18.803 0 17.7166 0H2.62349C1.17494 0 0 1.02322 0 2.28471V13.7153C0 14.9768 1.17494 16 2.62349 16H18.9157C20.0665 16 21 15.2326 21 14.2865V5.14411C21 4.19799 20.0665 3.43057 18.9157 3.43057V3.42707Z" fill="#000"/>
</svg>
