<svg width="24" height="12" viewBox="0 0 24 12" fill="none" xmlns="http://www.w3.org/2000/svg">
<path d="M6.40178 7.20291H8.76148C8.72264 7.93122 8.52357 8.57455 8.16427 9.13292C7.80983 9.68643 7.31701 10.121 6.68582 10.4366C6.05462 10.7473 5.30447 10.9027 4.43536 10.9027C3.74105 10.9027 3.11956 10.7837 2.57091 10.5458C2.02225 10.3079 1.55614 9.96804 1.17257 9.5262C0.79385 9.07951 0.502529 8.54299 0.298604 7.91665C0.0995347 7.28545 0 6.57415 0 5.78272V5.13453C0 4.34311 0.10439 3.6318 0.31317 3.00061C0.52195 2.36941 0.820554 1.83047 1.20898 1.38377C1.59741 0.937083 2.06352 0.594781 2.60732 0.356868C3.15112 0.118956 3.75804 0 4.42808 0C5.33118 0 6.09347 0.162654 6.71495 0.487963C7.33644 0.813271 7.81712 1.25996 8.15699 1.82804C8.50172 2.39612 8.70807 3.04431 8.77605 3.77261H6.40906C6.38964 3.3599 6.31196 3.01275 6.17601 2.73113C6.04006 2.44467 5.83128 2.22861 5.54967 2.08295C5.26806 1.93729 4.89419 1.86445 4.42808 1.86445C4.08821 1.86445 3.7896 1.92757 3.53227 2.05381C3.27979 2.18005 3.06858 2.37669 2.89864 2.64374C2.73356 2.91078 2.60975 3.25066 2.52721 3.66336C2.44467 4.07121 2.4034 4.55675 2.4034 5.11997V5.78272C2.4034 6.34109 2.43981 6.8242 2.51264 7.23205C2.58547 7.63989 2.702 7.97734 2.86223 8.24439C3.02731 8.51143 3.23852 8.7105 3.49585 8.84159C3.75319 8.97269 4.06636 9.03824 4.43536 9.03824C4.85778 9.03824 5.20979 8.97269 5.4914 8.84159C5.77301 8.70564 5.98908 8.50172 6.13959 8.22982C6.29011 7.95792 6.3775 7.61562 6.40178 7.20291Z" fill="black"/>
<path d="M12.454 6.25612H16.4669V10.757H18.8339V0.152944H16.4669V4.4208H12.454V0.152944H10.0797V10.757H12.454V6.25612Z" fill="black"/>
<path fill-rule="evenodd" clip-rule="evenodd" d="M36.4928 5.22193V5.69533C36.4928 6.50132 36.3811 7.22476 36.1578 7.86567C35.9393 8.50657 35.6261 9.0528 35.2183 9.50435C34.8153 9.9559 34.3346 10.3031 33.7762 10.5458C33.2227 10.7837 32.6085 10.9027 31.9336 10.9027C31.2588 10.9027 30.6421 10.7837 30.0838 10.5458C29.5254 10.3031 29.0399 9.9559 28.6271 9.50435C28.2193 9.0528 27.9037 8.50657 27.6804 7.86567C27.457 7.22476 27.3453 6.50132 27.3453 5.69533V5.22193C27.3453 4.41594 27.457 3.69249 27.6804 3.05159C27.9037 2.40583 28.2169 1.85717 28.6199 1.40562C29.0277 0.954076 29.5108 0.609347 30.0692 0.371434C30.6276 0.128667 31.2442 0.00728303 31.9191 0.00728303C32.594 0.00728303 33.2106 0.128667 33.769 0.371434C34.3273 0.609347 34.808 0.954076 35.211 1.40562C35.6189 1.85717 35.9345 2.40583 36.1578 3.05159C36.3811 3.69249 36.4928 4.41594 36.4928 5.22193ZM34.0967 5.69533V5.20736C34.0967 4.66842 34.0481 4.1926 33.951 3.77989C33.8539 3.36233 33.7131 3.01275 33.5286 2.73113C33.3441 2.44952 33.1159 2.23832 32.844 2.09751C32.5721 1.95185 32.2638 1.87902 31.9191 1.87902C31.5598 1.87902 31.2466 1.95185 30.9796 2.09751C30.7125 2.23832 30.4867 2.44952 30.3022 2.73113C30.1226 3.01275 29.9842 3.36233 29.8871 3.77989C29.7949 4.1926 29.7487 4.66842 29.7487 5.20736V5.69533C29.7487 6.22942 29.7949 6.70524 29.8871 7.1228C29.9842 7.5355 30.125 7.88509 30.3095 8.17156C30.494 8.45802 30.7198 8.67408 30.9869 8.81975C31.2588 8.96541 31.5743 9.03824 31.9336 9.03824C32.2784 9.03824 32.5843 8.96541 32.8513 8.81975C33.1232 8.67408 33.3514 8.45802 33.5359 8.17156C33.7204 7.88509 33.8588 7.5355 33.951 7.1228C34.0481 6.70524 34.0967 6.22942 34.0967 5.69533Z" fill="black"/>
<path d="M25.9082 12V10.8201H22.9998L24.068 9.60631C24.3205 9.35383 24.547 9.1143 24.7477 8.88772C24.9484 8.6579 25.12 8.43294 25.2624 8.21283C25.4048 7.99272 25.5133 7.77099 25.5877 7.54764C25.6654 7.3243 25.7042 7.09286 25.7042 6.85333C25.7042 6.42929 25.6152 6.06676 25.4372 5.76573C25.2592 5.4647 24.997 5.23326 24.6506 5.07141C24.3043 4.90957 23.8754 4.82865 23.3639 4.82865C22.8655 4.82865 22.4301 4.93546 22.0579 5.1491C21.6856 5.3595 21.3959 5.64273 21.1888 5.99879C20.9816 6.35161 20.878 6.74327 20.878 7.17378H22.4026C22.4026 6.95044 22.4398 6.75137 22.5143 6.57657C22.5887 6.39854 22.6955 6.25936 22.8347 6.15901C22.9739 6.05867 23.1406 6.0085 23.3348 6.0085C23.5161 6.0085 23.6698 6.04734 23.7961 6.12503C23.9223 6.20271 24.0178 6.31438 24.0825 6.46004C24.1505 6.60571 24.1845 6.78373 24.1845 6.99413C24.1845 7.12361 24.1554 7.26603 24.0971 7.4214C24.0388 7.57354 23.945 7.74348 23.8155 7.93122C23.6893 8.11896 23.5193 8.33583 23.3057 8.58183L21.0237 10.9998V12H25.9082Z" fill="black"/>
</svg>
