<svg width="46" height="15" viewBox="0 0 46 15" fill="none" xmlns="http://www.w3.org/2000/svg">
<path d="M8.00222 9.00364H10.9519C10.9033 9.91402 10.6545 10.7182 10.2053 11.4161C9.76229 12.108 9.14627 12.6512 8.35727 13.0457C7.56828 13.4341 6.63059 13.6284 5.5442 13.6284C4.67631 13.6284 3.89945 13.4797 3.21364 13.1823C2.52782 12.8849 1.94517 12.46 1.46571 11.9077C0.992312 11.3494 0.628161 10.6787 0.373255 9.89581C0.124418 9.10682 0 8.21768 0 7.2284V6.41817C0 5.42889 0.130488 4.53975 0.391463 3.75076C0.652438 2.96176 1.02569 2.28808 1.51123 1.72972C1.99676 1.17135 2.57941 0.743476 3.25915 0.446085C3.9389 0.148695 4.69755 0 5.5351 0C6.66397 0 7.61683 0.203318 8.39369 0.609953C9.17054 1.01659 9.77139 1.57495 10.1962 2.28505C10.6271 2.99514 10.8851 3.80538 10.9701 4.71576H8.01133C7.98705 4.19988 7.88995 3.76593 7.72001 3.41392C7.55007 3.05584 7.2891 2.78576 6.93708 2.60368C6.58507 2.42161 6.11774 2.33057 5.5351 2.33057C5.11026 2.33057 4.737 2.40947 4.41533 2.56727C4.09974 2.72507 3.83573 2.97087 3.62331 3.30467C3.41695 3.63848 3.26219 4.06332 3.15901 4.5792C3.05584 5.08902 3.00425 5.69593 3.00425 6.39996V7.2284C3.00425 7.92636 3.04977 8.53024 3.14081 9.04006C3.23184 9.54987 3.3775 9.97168 3.57779 10.3055C3.78414 10.6393 4.04815 10.8881 4.36982 11.052C4.69148 11.2159 5.08295 11.2978 5.5442 11.2978C6.07222 11.2978 6.51224 11.2159 6.86425 11.052C7.21627 10.8821 7.48634 10.6271 7.67449 10.2873C7.86263 9.9474 7.97188 9.51952 8.00222 9.00364Z" fill="black"/>
<path d="M15.5675 7.82015H20.5837V13.4463H23.5424V0.191179H20.5837V5.526H15.5675V0.191179H12.5996V13.4463H15.5675V7.82015Z" fill="black"/>
<path fill-rule="evenodd" clip-rule="evenodd" d="M45.616 6.52741V7.11916C45.616 8.12664 45.4764 9.03095 45.1972 9.83209C44.9241 10.6332 44.5327 11.316 44.0229 11.8804C43.5191 12.4449 42.9183 12.8788 42.2203 13.1823C41.5284 13.4797 40.7607 13.6284 39.9171 13.6284C39.0734 13.6284 38.3026 13.4797 37.6047 13.1823C36.9067 12.8788 36.2998 12.4449 35.7839 11.8804C35.2741 11.316 34.8796 10.6332 34.6004 9.83209C34.3213 9.03095 34.1817 8.12664 34.1817 7.11916V6.52741C34.1817 5.51993 34.3213 4.61562 34.6004 3.81449C34.8796 3.00728 35.2711 2.32146 35.7748 1.75703C36.2846 1.1926 36.8885 0.761683 37.5865 0.464293C38.2844 0.160834 39.0552 0.00910378 39.8988 0.00910378C40.7425 0.00910378 41.5132 0.160834 42.2112 0.464293C42.9092 0.761683 43.51 1.1926 44.0138 1.75703C44.5236 2.32146 44.9181 3.00728 45.1972 3.81449C45.4764 4.61562 45.616 5.51993 45.616 6.52741ZM42.6209 7.11916V6.50921C42.6209 5.83553 42.5602 5.24074 42.4388 4.72486C42.3174 4.20291 42.1414 3.76593 41.9108 3.41392C41.6802 3.06191 41.3949 2.7979 41.055 2.62189C40.7152 2.43981 40.3298 2.34878 39.8988 2.34878C39.4497 2.34878 39.0583 2.43981 38.7245 2.62189C38.3907 2.7979 38.1084 3.06191 37.8778 3.41392C37.6532 3.76593 37.4803 4.20291 37.3589 4.72486C37.2436 5.24074 37.1859 5.83553 37.1859 6.50921V7.11916C37.1859 7.78677 37.2436 8.38155 37.3589 8.9035C37.4803 9.41938 37.6563 9.85636 37.8869 10.2144C38.1175 10.5725 38.3998 10.8426 38.7336 11.0247C39.0734 11.2068 39.4679 11.2978 39.9171 11.2978C40.348 11.2978 40.7303 11.2068 41.0641 11.0247C41.404 10.8426 41.6893 10.5725 41.9199 10.2144C42.1505 9.85636 42.3235 9.41938 42.4388 8.9035C42.5602 8.38155 42.6209 7.78677 42.6209 7.11916Z" fill="black"/>
<path d="M32.3852 15V13.5252H28.7497L30.085 12.0079C30.4006 11.6923 30.6838 11.3929 30.9347 11.1097C31.1855 10.8224 31.4 10.5412 31.578 10.266C31.756 9.9909 31.8916 9.71374 31.9846 9.43455C32.0817 9.15537 32.1303 8.86607 32.1303 8.56666C32.1303 8.03662 32.019 7.58345 31.7965 7.20716C31.5739 6.83087 31.2462 6.54157 30.8133 6.33927C30.3803 6.13696 29.8442 6.03581 29.2049 6.03581C28.5818 6.03581 28.0376 6.16933 27.5723 6.43637C27.107 6.69937 26.7449 7.05341 26.4859 7.49848C26.227 7.93951 26.0975 8.42909 26.0975 8.96723H28.0032C28.0032 8.68804 28.0498 8.43921 28.1428 8.22072C28.2359 7.99818 28.3694 7.8242 28.5434 7.69877C28.7174 7.57334 28.9258 7.51062 29.1685 7.51062C29.3951 7.51062 29.5873 7.55918 29.7451 7.65628C29.9029 7.75339 30.0223 7.89298 30.1032 8.07506C30.1881 8.25713 30.2306 8.47967 30.2306 8.74267C30.2306 8.90451 30.1942 9.08254 30.1214 9.27676C30.0486 9.46692 29.9312 9.67935 29.7694 9.91402C29.6116 10.1487 29.3991 10.4198 29.1321 10.7273L26.2796 13.7497V15H32.3852Z" fill="black"/>
</svg>
