<svg width="57" height="19" viewBox="0 0 57 19" fill="none" xmlns="http://www.w3.org/2000/svg">
<path fill-rule="evenodd" clip-rule="evenodd" d="M21.3159 2.19922H29.6962V5.06058H24.0696V7.92194H29.2731V10.7833H24.0696V16.2676H21.3159V2.19922Z" fill="#F01421"/>
<path fill-rule="evenodd" clip-rule="evenodd" d="M35.6228 8.16038H37.4612C37.7073 8.16038 37.9458 8.13346 38.1765 8.07962C38.4073 8.02578 38.6111 7.93732 38.7957 7.81041C38.9765 7.68349 39.1226 7.51042 39.238 7.29505C39.3495 7.07584 39.4072 6.80278 39.4072 6.47203C39.4072 6.11436 39.3341 5.82591 39.1841 5.6067C39.038 5.38748 38.8495 5.21826 38.6188 5.09904C38.388 4.97981 38.1342 4.90289 37.8496 4.87213C37.565 4.83751 37.2958 4.82213 37.0381 4.82213H35.6228V8.16038ZM32.8691 2.19922H37.515C38.1611 2.19922 38.7765 2.2646 39.3534 2.39536C39.9302 2.52997 40.4341 2.75688 40.8648 3.07993C41.2955 3.40299 41.634 3.84142 41.8878 4.39139C42.1416 4.94135 42.2686 5.63362 42.2686 6.46818C42.2686 7.30274 42.1532 7.97962 41.9147 8.53344C41.6801 9.09109 41.3532 9.53337 40.9417 9.86412C40.5302 10.1949 40.0418 10.4295 39.4764 10.5679C38.9111 10.7064 38.2996 10.7756 37.6381 10.7756H35.6228V16.2599H32.8691V2.19922Z" fill="#F01421"/>
<path fill-rule="evenodd" clip-rule="evenodd" d="M48.5529 8.91803L44.4185 2.19922H47.8798L50.5489 7.12583L53.1103 2.19922H56.4485L52.4026 8.85649L56.9254 16.2714H53.4641L50.4104 10.6064L47.4414 16.2714H44.1724L48.5529 8.91803Z" fill="#F01421"/>
<path fill-rule="evenodd" clip-rule="evenodd" d="M7.19378 13.4681L5.45158 10.8952C5.1939 10.5144 4.74393 10.0068 4.74393 9.50295C4.74393 8.99914 5.19006 8.49532 5.45158 8.11073L7.19378 5.53397C7.27839 5.4109 7.35531 5.32244 7.43607 5.25322V2.28802C7.43607 -0.0926001 6.52074 -0.692562 5.40543 0.953488L1.64413 6.50314C1.08647 7.33001 0.125 8.41456 0.125 9.50295C0.125 10.5913 1.08647 11.6759 1.64413 12.5066L5.40543 18.0486C6.52074 19.6985 7.43607 19.1023 7.43607 16.7179V13.7527C7.35915 13.6835 7.27839 13.595 7.19378 13.4719V13.4681Z" fill="#F01421"/>
<path fill-rule="evenodd" clip-rule="evenodd" d="M15.4854 6.50293L11.728 0.953281C10.6126 -0.696615 9.70117 -0.0966531 9.70117 2.28781V5.25301C9.77424 5.32224 9.85501 5.41069 9.93962 5.53376L11.6857 8.11053C11.9472 8.49512 12.3895 8.99893 12.3895 9.50274C12.3895 10.0066 11.9472 10.5142 11.6857 10.895L9.93962 13.4679C9.85885 13.5948 9.77809 13.6833 9.70117 13.7525V16.7177C9.70117 19.106 10.6126 19.6983 11.728 18.0484L15.4854 12.5064C16.0431 11.6757 17.0007 10.5873 17.0007 9.50274C17.0007 8.4182 16.0431 7.3298 15.4854 6.50678V6.50293Z" fill="#F01421"/>
</svg>
