<svg width="24" height="24" viewBox="0 0 24 24" fill="none" xmlns="http://www.w3.org/2000/svg">
<circle cx="12" cy="12" r="12" fill="#E1ECF6"/>
<path d="M9.23287 9.53532C9.23287 8.56034 10.0608 7.76766 11.079 7.76766H12.0021C13.0204 7.76766 13.8483 8.56034 13.8483 9.53532V9.63475C13.8483 10.2369 13.5281 10.7975 13.0002 11.1207L11.7829 11.8692C11.0559 12.3166 10.6175 13.0872 10.6175 13.913V13.9545C10.6175 14.4433 11.03 14.8383 11.5406 14.8383C12.0511 14.8383 12.4636 14.4433 12.4636 13.9545V13.9158C12.4636 13.6893 12.5848 13.4794 12.7809 13.3579L13.9983 12.6094C15.054 11.9576 15.6944 10.839 15.6944 9.63475V9.53532C15.6944 7.58261 14.0415 6 12.0021 6H11.079C9.0396 6 7.38672 7.58261 7.38672 9.53532C7.38672 10.0242 7.79922 10.4191 8.3098 10.4191C8.82037 10.4191 9.23287 10.0242 9.23287 9.53532ZM11.5406 18.3736C11.8466 18.3736 12.1401 18.2572 12.3565 18.05C12.5728 17.8428 12.6944 17.5618 12.6944 17.2688C12.6944 16.9758 12.5728 16.6948 12.3565 16.4876C12.1401 16.2804 11.8466 16.164 11.5406 16.164C11.2345 16.164 10.9411 16.2804 10.7247 16.4876C10.5083 16.6948 10.3867 16.9758 10.3867 17.2688C10.3867 17.5618 10.5083 17.8428 10.7247 18.05C10.9411 18.2572 11.2345 18.3736 11.5406 18.3736Z" fill="#92ADC7"/>
</svg>
