<svg width="32" height="12" viewBox="0 0 32 12" fill="none" xmlns="http://www.w3.org/2000/svg">
<path d="M2.34375 0.625V12H0V0.625H2.34375ZM9.15625 0.625L4.64844 6.24219L2.04688 9.03906L1.625 6.82031L3.38281 4.41406L6.28125 0.625H9.15625ZM6.49219 12L3.14062 6.74219L4.875 5.28906L9.26562 12H6.49219Z" fill="black"/>
<path d="M12.9141 10.1953L15.1797 0.625H16.4453L16.7344 2.21875L14.3203 12H12.9609L12.9141 10.1953ZM11.75 0.625L13.625 10.1953L13.4688 12H11.9531L9.42969 0.625H11.75ZM18.7266 10.1562L20.5781 0.625H22.8984L20.3828 12H18.8672L18.7266 10.1562ZM17.1562 0.625L19.4375 10.2344L19.375 12H18.0156L15.5859 2.21094L15.8984 0.625H17.1562Z" fill="black"/>
<path d="M26.2266 0V12H23.9766V0H26.2266ZM25.9062 7.47656H25.2891C25.2943 6.88802 25.3724 6.34635 25.5234 5.85156C25.6745 5.35156 25.8906 4.91927 26.1719 4.55469C26.4531 4.1849 26.7891 3.89844 27.1797 3.69531C27.5755 3.49219 28.013 3.39062 28.4922 3.39062C28.9089 3.39062 29.2865 3.45052 29.625 3.57031C29.9688 3.6849 30.263 3.8724 30.5078 4.13281C30.7578 4.38802 30.9505 4.72396 31.0859 5.14062C31.2214 5.55729 31.2891 6.0625 31.2891 6.65625V12H29.0234V6.64062C29.0234 6.26562 28.9688 5.97135 28.8594 5.75781C28.7552 5.53906 28.6016 5.38542 28.3984 5.29688C28.2005 5.20312 27.9557 5.15625 27.6641 5.15625C27.3411 5.15625 27.0651 5.21615 26.8359 5.33594C26.612 5.45573 26.4323 5.6224 26.2969 5.83594C26.1615 6.04427 26.0625 6.28906 26 6.57031C25.9375 6.85156 25.9062 7.15365 25.9062 7.47656Z" fill="black"/>
</svg>
