<svg width="17" height="18" viewBox="0 0 17 18" fill="none" xmlns="http://www.w3.org/2000/svg">
<path d="M14.8169 5.55054C16.0667 5.25927 17 4.14327 17 2.81127C17 1.25673 15.7304 0 14.1672 0C12.6041 0 11.3806 1.21418 11.3344 2.72618L4.82463 5.31491C4.31018 4.81091 3.61106 4.50327 2.83279 4.50327C1.26635 4.50327 0 5.76327 0 7.31455C0 8.86582 1.26965 10.1258 2.83279 10.1258C3.2648 10.1258 3.67701 10.0309 4.03976 9.85745L9.19747 14.3378C9.11173 14.6062 9.06558 14.8942 9.06558 15.1887C9.06558 16.7433 10.3352 18 11.8983 18C13.4615 18 14.7311 16.74 14.7311 15.1887C14.7311 14.2135 14.2365 13.356 13.478 12.8553L14.8169 5.55382V5.55054ZM5.53036 8.16218C5.60951 7.92 5.65568 7.66145 5.66228 7.39964L12.1721 4.81418C12.3007 4.93854 12.4326 5.04982 12.5843 5.148L11.2454 12.4462C11.0508 12.492 10.8628 12.5542 10.6848 12.6393L5.53036 8.15891V8.16218Z" fill="#000"/>
</svg>
