<svg width="60" height="16" viewBox="0 0 60 16" fill="none" xmlns="http://www.w3.org/2000/svg">
<path d="M6.44308 9.9449H2.72565V7.60021H6.44308C7.01756 7.60021 7.48517 7.50669 7.84589 7.31965C8.20661 7.12593 8.47047 6.85873 8.63747 6.51805C8.80447 6.17737 8.88797 5.79326 8.88797 5.36574C8.88797 4.93154 8.80447 4.5274 8.63747 4.15332C8.47047 3.77924 8.20661 3.47864 7.84589 3.25151C7.48517 3.02439 7.01756 2.91083 6.44308 2.91083H3.76773V15.1453H0.761719V0.556124H6.44308C7.58537 0.556124 8.56399 0.763205 9.37895 1.17737C10.2006 1.58485 10.8285 2.14931 11.2627 2.87075C11.6969 3.5922 11.914 4.41718 11.914 5.3457C11.914 6.28759 11.6969 7.10255 11.2627 7.79059C10.8285 8.47864 10.2006 9.0097 9.37895 9.38378C8.56399 9.75786 7.58537 9.9449 6.44308 9.9449Z" fill="black"/>
<path d="M15.3609 0.556124H17.906L21.6535 11.2675L25.401 0.556124H27.9461L22.6755 15.1453H20.6315L15.3609 0.556124ZM13.9882 0.556124H16.5232L16.9842 10.997V15.1453H13.9882V0.556124ZM26.7838 0.556124H29.3289V15.1453H26.3228V10.997L26.7838 0.556124Z" fill="black"/>
<path d="M41.6435 12.8908V15.1453H31.6635V13.2215L36.383 8.16133C36.8572 7.63361 37.2313 7.16935 37.5052 6.76855C37.7791 6.36107 37.9761 5.99701 38.0964 5.67636C38.2233 5.34904 38.2868 5.03842 38.2868 4.7445C38.2868 4.30362 38.2133 3.9262 38.0663 3.61224C37.9194 3.29159 37.7023 3.04443 37.415 2.87075C37.1345 2.69707 36.7871 2.61023 36.3729 2.61023C35.9321 2.61023 35.5513 2.71711 35.2307 2.93087C34.9167 3.14463 34.6762 3.4419 34.5092 3.82266C34.3489 4.20342 34.2687 4.63428 34.2687 5.11524H31.3729C31.3729 4.24684 31.58 3.45192 31.9942 2.73047C32.4083 2.00235 32.9928 1.42453 33.7477 0.997006C34.5025 0.562804 35.3977 0.345703 36.4331 0.345703C37.4551 0.345703 38.3168 0.512704 39.0182 0.846705C39.7263 1.17403 40.2607 1.64831 40.6214 2.26955C40.9888 2.88411 41.1725 3.61892 41.1725 4.47396C41.1725 4.95492 41.0957 5.42586 40.9421 5.88679C40.7884 6.34103 40.568 6.79527 40.2808 7.24951C40.0002 7.69707 39.6595 8.15131 39.2587 8.61224C38.8579 9.07316 38.4137 9.55078 37.926 10.0451L35.391 12.8908H41.6435Z" fill="black"/>
<path d="M43.7076 13.7525C43.7076 13.325 43.8546 12.9676 44.1485 12.6804C44.4491 12.3931 44.8466 12.2495 45.3409 12.2495C45.8352 12.2495 46.2293 12.3931 46.5232 12.6804C46.8238 12.9676 46.9741 13.325 46.9741 13.7525C46.9741 14.18 46.8238 14.5374 46.5232 14.8247C46.2293 15.1119 45.8352 15.2555 45.3409 15.2555C44.8466 15.2555 44.4491 15.1119 44.1485 14.8247C43.8546 14.5374 43.7076 14.18 43.7076 13.7525Z" fill="black"/>
<path d="M52.1144 8.50202L49.8098 7.95091L50.6415 0.556124H58.8379V2.89079H53.0162L52.6555 6.12727C52.8492 6.01371 53.1431 5.89347 53.5373 5.76654C53.9314 5.63294 54.3723 5.56614 54.8599 5.56614C55.568 5.56614 56.1959 5.67636 56.7437 5.89681C57.2914 6.11725 57.7557 6.43789 58.1365 6.85873C58.5239 7.27957 58.8178 7.79393 59.0182 8.40182C59.2186 9.0097 59.3188 9.69774 59.3188 10.4659C59.3188 11.1139 59.2186 11.7318 59.0182 12.3197C58.8178 12.9008 58.5139 13.4219 58.1064 13.8828C57.6989 14.337 57.1879 14.6944 56.5733 14.9549C55.9588 15.2154 55.2307 15.3457 54.389 15.3457C53.7611 15.3457 53.1532 15.2522 52.5653 15.0651C51.9842 14.8781 51.4598 14.6009 50.9922 14.2335C50.5313 13.8661 50.1605 13.4219 49.88 12.9008C49.6061 12.3731 49.4625 11.7719 49.4491 11.0972H52.3148C52.3549 11.5114 52.4618 11.8687 52.6355 12.1694C52.8158 12.4633 53.053 12.6904 53.3469 12.8507C53.6408 13.011 53.9848 13.0912 54.379 13.0912C54.7464 13.0912 55.0603 13.0211 55.3208 12.8808C55.5814 12.7405 55.7918 12.5468 55.9521 12.2996C56.1124 12.0458 56.2293 11.7518 56.3028 11.4178C56.383 11.0772 56.423 10.7098 56.423 10.3156C56.423 9.92152 56.3763 9.56414 56.2828 9.2435C56.1892 8.92286 56.0456 8.64564 55.8519 8.41184C55.6582 8.17803 55.411 7.99767 55.1104 7.87075C54.8165 7.74383 54.4725 7.68037 54.0784 7.68037C53.5439 7.68037 53.1298 7.76387 52.8359 7.93087C52.5486 8.09787 52.3081 8.28825 52.1144 8.50202Z" fill="black"/>
</svg>
