<svg width="43" height="11" viewBox="0 0 43 11" fill="none" xmlns="http://www.w3.org/2000/svg">
<path d="M4.16633 7.03941H1.44021V5.31997H4.16633C4.58762 5.31997 4.93053 5.25139 5.19506 5.11423C5.45959 4.97217 5.65308 4.77622 5.77555 4.52639C5.89802 4.27655 5.95925 3.99488 5.95925 3.68136C5.95925 3.36295 5.89802 3.06658 5.77555 2.79225C5.65308 2.51792 5.45959 2.29748 5.19506 2.13093C4.93053 1.96437 4.58762 1.8811 4.16633 1.8811H2.20441V10.853H0V0.154309H4.16633C5.00401 0.154309 5.72167 0.306168 6.3193 0.609886C6.92184 0.908706 7.38232 1.32265 7.70073 1.8517C8.01915 2.38076 8.17836 2.98575 8.17836 3.66667C8.17836 4.35738 8.01915 4.95502 7.70073 5.45959C7.38232 5.96415 6.92184 6.3536 6.3193 6.62792C5.72167 6.90225 5.00401 7.03941 4.16633 7.03941Z" fill="black"/>
<path d="M10.7061 0.154309H12.5725L15.3206 8.00935L18.0688 0.154309H19.9352L16.0701 10.853H14.5711L10.7061 0.154309ZM9.6994 0.154309H11.5584L11.8965 7.81096V10.853H9.6994V0.154309ZM19.0828 0.154309H20.9492V10.853H18.7448V7.81096L19.0828 0.154309Z" fill="black"/>
<path d="M29.98 9.19973V10.853H22.6613V9.44222L26.1222 5.73146C26.47 5.34447 26.7444 5.00401 26.9452 4.71009C27.1461 4.41127 27.2906 4.14429 27.3788 3.90915C27.4718 3.66912 27.5184 3.44133 27.5184 3.22579C27.5184 2.90247 27.4645 2.6257 27.3567 2.39546C27.2489 2.16032 27.0897 1.97907 26.8791 1.8517C26.6733 1.72434 26.4186 1.66065 26.1149 1.66065C25.7916 1.66065 25.5124 1.73903 25.2772 1.89579C25.047 2.05255 24.8706 2.27054 24.7482 2.54977C24.6306 2.82899 24.5718 3.14496 24.5718 3.49766H22.4482C22.4482 2.86083 22.6001 2.27789 22.9038 1.74883C23.2075 1.21487 23.6362 0.791138 24.1897 0.477622C24.7433 0.159207 25.3997 0 26.159 0C26.9085 0 27.5404 0.122467 28.0548 0.367401C28.574 0.607437 28.9659 0.955244 29.2305 1.41082C29.4999 1.8615 29.6346 2.40036 29.6346 3.02739C29.6346 3.38009 29.5783 3.72545 29.4656 4.06346C29.3529 4.39657 29.1913 4.72968 28.9806 5.06279C28.7749 5.391 28.525 5.72411 28.2311 6.06212C27.9372 6.40013 27.6114 6.75039 27.2538 7.11289L25.3948 9.19973H29.98Z" fill="black"/>
<path d="M31.4937 9.83166C31.4937 9.51815 31.6014 9.25607 31.817 9.04542C32.0374 8.83478 32.3289 8.72946 32.6914 8.72946C33.0539 8.72946 33.3429 8.83478 33.5584 9.04542C33.7789 9.25607 33.8891 9.51815 33.8891 9.83166C33.8891 10.1452 33.7789 10.4073 33.5584 10.6179C33.3429 10.8285 33.0539 10.9339 32.6914 10.9339C32.3289 10.9339 32.0374 10.8285 31.817 10.6179C31.6014 10.4073 31.4937 10.1452 31.4937 9.83166Z" fill="black"/>
<path d="M37.6586 5.9813L35.9686 5.57715L36.5785 0.154309H42.5892V1.8664H38.32L38.0554 4.23981C38.1975 4.15654 38.413 4.06836 38.7021 3.97528C38.9911 3.87731 39.3144 3.82832 39.672 3.82832C40.1913 3.82832 40.6517 3.90915 41.0534 4.07081C41.4551 4.23247 41.7956 4.4676 42.0748 4.77622C42.3589 5.08484 42.5745 5.46204 42.7214 5.90782C42.8684 6.3536 42.9419 6.85816 42.9419 7.42151C42.9419 7.89668 42.8684 8.34981 42.7214 8.7809C42.5745 9.20708 42.3516 9.58918 42.0528 9.92719C41.7539 10.2603 41.3792 10.5224 40.9285 10.7134C40.4778 10.9045 39.9439 11 39.3267 11C38.8662 11 38.4204 10.9314 37.9893 10.7943C37.5631 10.6571 37.1786 10.4538 36.8357 10.1844C36.4977 9.91494 36.2258 9.58918 36.02 9.20708C35.8192 8.82008 35.7139 8.3792 35.7041 7.88444H37.8056C37.835 8.18815 37.9134 8.45023 38.0407 8.67068C38.173 8.88622 38.3469 9.05277 38.5625 9.17034C38.778 9.28791 39.0303 9.34669 39.3193 9.34669C39.5887 9.34669 39.819 9.29526 40.01 9.19238C40.2011 9.08951 40.3554 8.94745 40.4729 8.7662C40.5905 8.58005 40.6762 8.36451 40.7301 8.11957C40.7889 7.86974 40.8183 7.60031 40.8183 7.31129C40.8183 7.02227 40.784 6.76019 40.7154 6.52505C40.6468 6.28991 40.5415 6.08662 40.3995 5.91516C40.2574 5.74371 40.0761 5.61145 39.8557 5.51837C39.6402 5.4253 39.3879 5.37876 39.0989 5.37876C38.707 5.37876 38.4032 5.43999 38.1877 5.56246C37.9771 5.68493 37.8007 5.82454 37.6586 5.9813Z" fill="black"/>
</svg>
