<svg width="24" height="24" viewBox="0 0 24 24" fill="none" xmlns="http://www.w3.org/2000/svg">
<path d="M6 12C7.18669 12 8.34673 11.6481 9.33342 10.9888C10.3201 10.3295 11.0892 9.39246 11.5433 8.2961C11.9974 7.19975 12.1162 5.99335 11.8847 4.82946C11.6532 3.66557 11.0818 2.59648 10.2426 1.75736C9.40353 0.918247 8.33443 0.346802 7.17054 0.115291C6.00666 -0.11622 4.80026 0.0025997 3.7039 0.456725C2.60754 0.910851 1.67047 1.67989 1.01118 2.66658C0.351894 3.65328 0 4.81331 0 6C0.00190543 7.59072 0.634658 9.11573 1.75946 10.2405C2.88427 11.3653 4.40929 11.9981 6 12ZM6 2.4C6.71201 2.4 7.40804 2.61114 8.00005 3.00671C8.59207 3.40229 9.05349 3.96453 9.32597 4.62234C9.59844 5.28016 9.66973 6.004 9.53083 6.70233C9.39192 7.40066 9.04905 8.04212 8.54559 8.54559C8.04212 9.04906 7.40066 9.39192 6.70233 9.53083C6.00399 9.66974 5.28015 9.59844 4.62234 9.32597C3.96453 9.05349 3.40228 8.59207 3.00671 8.00006C2.61114 7.40804 2.4 6.71202 2.4 6C2.4 5.04522 2.77928 4.12955 3.45442 3.45442C4.12955 2.77929 5.04522 2.4 6 2.4ZM12 14.4C11.0507 14.4 10.1226 14.6815 9.33326 15.2089C8.54391 15.7364 7.92868 16.486 7.56538 17.3631C7.20208 18.2402 7.10702 19.2053 7.29223 20.1364C7.47744 21.0675 7.9346 21.9228 8.60589 22.5941C9.27718 23.2654 10.1325 23.7226 11.0636 23.9078C11.9947 24.093 12.9598 23.9979 13.8369 23.6346C14.714 23.2713 15.4636 22.6561 15.9911 21.8667C16.5185 21.0774 16.8 20.1494 16.8 19.2C16.8 17.927 16.2943 16.7061 15.3941 15.8059C14.4939 14.9057 13.273 14.4 12 14.4ZM12 21.6C11.5253 21.6 11.0613 21.4592 10.6666 21.1955C10.272 20.9318 9.96434 20.557 9.78269 20.1184C9.60104 19.6799 9.55351 19.1973 9.64612 18.7318C9.73872 18.2662 9.9673 17.8386 10.3029 17.5029C10.6386 17.1673 11.0662 16.9387 11.5318 16.8461C11.9973 16.7535 12.4799 16.801 12.9184 16.9827C13.357 17.1643 13.7318 17.472 13.9955 17.8666C14.2592 18.2613 14.4 18.7253 14.4 19.2C14.4 19.8365 14.1471 20.447 13.6971 20.8971C13.247 21.3471 12.6365 21.6 12 21.6ZM24 8.4C24 7.68799 23.7889 6.99197 23.3933 6.39995C22.9977 5.80793 22.4355 5.34651 21.7777 5.07404C21.1198 4.80156 20.396 4.73027 19.6977 4.86918C18.9993 5.00808 18.3579 5.35095 17.8544 5.85442C17.3509 6.35789 17.0081 6.99935 16.8692 7.69768C16.7303 8.39601 16.8016 9.11985 17.074 9.77766C17.3465 10.4355 17.8079 10.9977 18.3999 11.3933C18.992 11.7889 19.688 12 20.4 12C21.3548 12 22.2705 11.6207 22.9456 10.9456C23.6207 10.2705 24 9.35478 24 8.4ZM20.4 9.6C20.1627 9.6 19.9307 9.52962 19.7333 9.39777C19.536 9.26591 19.3822 9.07849 19.2913 8.85922C19.2005 8.63995 19.1768 8.39867 19.2231 8.16589C19.2694 7.93312 19.3836 7.7193 19.5515 7.55147C19.7193 7.38365 19.9331 7.26936 20.1659 7.22306C20.3987 7.17676 20.6399 7.20052 20.8592 7.29135C21.0785 7.38217 21.2659 7.53598 21.3978 7.73332C21.5296 7.93066 21.6 8.16266 21.6 8.4C21.6 8.71826 21.4736 9.02349 21.2485 9.24853C21.0235 9.47357 20.7183 9.6 20.4 9.6ZM16.8 3.6C16.8 3.83734 16.7296 4.06935 16.5978 4.26669C16.4659 4.46403 16.2785 4.61783 16.0592 4.70866C15.8399 4.79948 15.5987 4.82325 15.3659 4.77694C15.1331 4.73064 14.9193 4.61635 14.7515 4.44853C14.5836 4.28071 14.4694 4.06689 14.4231 3.83411C14.3768 3.60133 14.4005 3.36005 14.4913 3.14078C14.5822 2.92151 14.736 2.7341 14.9333 2.60224C15.1307 2.47038 15.3627 2.4 15.6 2.4C15.9183 2.4 16.2235 2.52643 16.4485 2.75147C16.6736 2.97652 16.8 3.28174 16.8 3.6ZM20.4 15.6C20.6373 15.6 20.8693 15.6704 21.0667 15.8022C21.264 15.9341 21.4178 16.1215 21.5087 16.3408C21.5995 16.5601 21.6232 16.8013 21.5769 17.0341C21.5306 17.2669 21.4164 17.4807 21.2485 17.6485C21.0807 17.8164 20.8669 17.9306 20.6341 17.9769C20.4013 18.0232 20.1601 17.9995 19.9408 17.9087C19.7215 17.8178 19.5341 17.664 19.4022 17.4667C19.2704 17.2693 19.2 17.0373 19.2 16.8C19.2 16.4817 19.3264 16.1765 19.5515 15.9515C19.7765 15.7264 20.0817 15.6 20.4 15.6ZM4.8 13.2C5.03734 13.2 5.26935 13.2704 5.46668 13.4022C5.66402 13.5341 5.81783 13.7215 5.90866 13.9408C5.99948 14.1601 6.02324 14.4013 5.97694 14.6341C5.93064 14.8669 5.81635 15.0807 5.64853 15.2485C5.48071 15.4164 5.26689 15.5306 5.03411 15.5769C4.80133 15.6232 4.56005 15.5995 4.34078 15.5087C4.12151 15.4178 3.93409 15.264 3.80224 15.0667C3.67038 14.8693 3.6 14.6373 3.6 14.4C3.6 14.0817 3.72643 13.7765 3.95147 13.5515C4.17652 13.3264 4.48174 13.2 4.8 13.2Z" fill="black"/>
</svg>
