<svg width="47" height="12" viewBox="0 0 47 12" fill="none" xmlns="http://www.w3.org/2000/svg">
<path d="M4.54509 7.67936H1.57114V5.80361H4.54509C5.00468 5.80361 5.37876 5.72879 5.66734 5.57916C5.95591 5.42418 6.167 5.21042 6.3006 4.93788C6.4342 4.66533 6.501 4.35805 6.501 4.01603C6.501 3.66867 6.4342 3.34536 6.3006 3.04609C6.167 2.74683 5.95591 2.50635 5.66734 2.32465C5.37876 2.14295 5.00468 2.0521 4.54509 2.0521H2.40481V11.8397H0V0.168337H4.54509C5.45892 0.168337 6.24182 0.334001 6.89379 0.665331C7.5511 0.991316 8.05344 1.44289 8.4008 2.02004C8.74816 2.59719 8.92184 3.25718 8.92184 4C8.92184 4.75351 8.74816 5.40548 8.4008 5.95591C8.05344 6.50635 7.5511 6.9312 6.89379 7.23046C6.24182 7.52973 5.45892 7.67936 4.54509 7.67936Z" fill="black"/>
<path d="M11.6794 0.168337H13.7154L16.7134 8.73748L19.7114 0.168337H21.7475L17.5311 11.8397H15.8958L11.6794 0.168337ZM10.5812 0.168337H12.6092L12.978 8.52104V11.8397H10.5812V0.168337ZM20.8176 0.168337H22.8537V11.8397H20.4489V8.52104L20.8176 0.168337Z" fill="black"/>
<path d="M32.7054 10.0361V11.8397H24.7214V10.3006L28.497 6.25251C28.8764 5.83033 29.1757 5.45892 29.3948 5.13828C29.6139 4.81229 29.7715 4.52104 29.8677 4.26453C29.9693 4.00267 30.02 3.75418 30.02 3.51904C30.02 3.16633 29.9613 2.8644 29.8437 2.61323C29.7261 2.35671 29.5524 2.15898 29.3226 2.02004C29.0982 1.8811 28.8203 1.81162 28.489 1.81162C28.1363 1.81162 27.8317 1.89713 27.5752 2.06814C27.324 2.23915 27.1316 2.47695 26.998 2.78156C26.8697 3.08617 26.8056 3.43086 26.8056 3.81563H24.489C24.489 3.12091 24.6546 2.48497 24.986 1.90782C25.3173 1.32532 25.7849 0.863059 26.3888 0.521042C26.9927 0.173681 27.7088 0 28.5371 0C29.3547 0 30.0441 0.133601 30.6052 0.400802C31.1717 0.662659 31.5992 1.04208 31.8878 1.53908C32.1817 2.03073 32.3287 2.61857 32.3287 3.30261C32.3287 3.68737 32.2672 4.06413 32.1443 4.43287C32.0214 4.79626 31.845 5.15965 31.6152 5.52305C31.3908 5.8811 31.1182 6.24449 30.7976 6.61323C30.477 6.98196 30.1216 7.36406 29.7315 7.75952L27.7034 10.0361H32.7054Z" fill="black"/>
<path d="M34.3567 10.7255C34.3567 10.3834 34.4743 10.0975 34.7094 9.86774C34.9499 9.63794 35.2679 9.52305 35.6633 9.52305C36.0588 9.52305 36.3741 9.63794 36.6092 9.86774C36.8497 10.0975 36.9699 10.3834 36.9699 10.7255C36.9699 11.0675 36.8497 11.3534 36.6092 11.5832C36.3741 11.813 36.0588 11.9279 35.6633 11.9279C35.2679 11.9279 34.9499 11.813 34.7094 11.5832C34.4743 11.3534 34.3567 11.0675 34.3567 10.7255Z" fill="black"/>
<path d="M41.0822 6.52505L39.2385 6.08417L39.9038 0.168337H46.4609V2.03607H41.8036L41.515 4.62525C41.67 4.5344 41.9051 4.43821 42.2204 4.33667C42.5357 4.22979 42.8884 4.17635 43.2786 4.17635C43.845 4.17635 44.3474 4.26453 44.7856 4.44088C45.2238 4.61723 45.5952 4.87375 45.8998 5.21042C46.2098 5.54709 46.4449 5.95858 46.6052 6.44489C46.7655 6.9312 46.8457 7.48163 46.8457 8.09619C46.8457 8.61456 46.7655 9.10888 46.6052 9.57916C46.4449 10.0441 46.2017 10.4609 45.8758 10.8297C45.5498 11.1931 45.1409 11.479 44.6493 11.6874C44.1576 11.8958 43.5752 12 42.9018 12C42.3995 12 41.9132 11.9252 41.4429 11.7756C40.978 11.6259 40.5585 11.4041 40.1844 11.1102C39.8156 10.8163 39.519 10.4609 39.2946 10.0441C39.0755 9.62191 38.9606 9.14095 38.9499 8.6012H41.2425C41.2746 8.93253 41.3601 9.21844 41.499 9.45892C41.6433 9.69406 41.833 9.87575 42.0681 10.004C42.3033 10.1323 42.5785 10.1964 42.8938 10.1964C43.1877 10.1964 43.4389 10.1403 43.6473 10.0281C43.8557 9.91583 44.0241 9.76086 44.1523 9.56313C44.2806 9.36005 44.3741 9.12492 44.4329 8.85772C44.497 8.58517 44.5291 8.29125 44.5291 7.97595C44.5291 7.66066 44.4917 7.37475 44.4168 7.11824C44.342 6.86172 44.2271 6.63995 44.0721 6.45291C43.9172 6.26587 43.7194 6.12158 43.479 6.02004C43.2438 5.9185 42.9686 5.86774 42.6533 5.86774C42.2258 5.86774 41.8945 5.93454 41.6593 6.06814C41.4295 6.20174 41.2371 6.35404 41.0822 6.52505Z" fill="black"/>
</svg>
