<svg width="512" height="512" viewBox="0 0 512 512" fill="none" xmlns="http://www.w3.org/2000/svg">
<path fill-rule="evenodd" clip-rule="evenodd" d="M404.573 438.859C412.611 438.859 419.495 433.29 421.277 425.571L438.418 351.285C438.704 350.043 438.855 348.75 438.855 347.42C438.855 340.353 434.581 334.294 428.467 331.674L348.469 297.389C346.4 296.503 344.121 296.012 341.729 296.012C336.38 296.012 331.593 298.448 328.448 302.291L293.023 345.588C237.087 319.345 192.112 273.751 166.417 218.983L209.715 183.558C213.559 180.413 216.014 175.633 216.014 170.283C216.014 167.892 215.503 165.606 214.617 163.537L180.331 83.5389C177.71 77.425 171.635 73.1371 164.566 73.1371C163.237 73.1371 161.961 73.3012 160.719 73.5879L86.4335 90.7285C78.8307 92.4819 73.1446 99.2977 73.1446 107.431C73.1446 290.621 221.654 438.859 404.573 438.859ZM54.8572 -3.42022e-05H457.143C487.44 -3.42022e-05 512 24.5602 512 54.8572V457.143C512 487.44 487.44 512 457.143 512L54.8572 512C24.5605 512 -2.63674e-05 487.44 -2.63674e-05 457.143V54.8572C-2.63674e-05 24.5605 24.5602 -3.42022e-05 54.8572 -3.42022e-05Z" fill="#F01421"/>
</svg>
