<svg width="36" height="36" viewBox="0 0 36 36" fill="none" xmlns="http://www.w3.org/2000/svg">
<path d="M6.73929 8.85929C6.73929 7.68845 7.68845 6.73929 8.85929 6.73929H14.6934C15.8642 6.73929 16.8134 7.68845 16.8134 8.85929V14.6934C16.8134 15.8642 15.8642 16.8134 14.6934 16.8134H8.85929C7.68845 16.8134 6.73929 15.8642 6.73929 14.6934V8.85929Z" fill="white"/>
<path d="M19.2386 8.85926C19.2386 7.68842 20.1877 6.73926 21.3586 6.73926H27.1926C28.3635 6.73926 29.3126 7.68841 29.3126 8.85926V14.6933C29.3126 15.8642 28.3635 16.8133 27.1926 16.8133H21.3586C20.1877 16.8133 19.2386 15.8642 19.2386 14.6933V8.85926Z" fill="white"/>
<path d="M6.73926 21.358C6.73926 20.1872 7.68841 19.238 8.85926 19.238H14.6933C15.8642 19.238 16.8133 20.1872 16.8133 21.358V27.1921C16.8133 28.3629 15.8642 29.3121 14.6933 29.3121H8.85926C7.68842 29.3121 6.73926 28.3629 6.73926 27.1921V21.358Z" fill="white"/>
<path d="M19.2386 21.358C19.2386 20.1872 20.1877 19.238 21.3586 19.238H27.1926C28.3635 19.238 29.3126 20.1872 29.3126 21.358V27.1921C29.3126 28.3629 28.3635 29.3121 27.1926 29.3121H21.3586C20.1877 29.3121 19.2386 28.3629 19.2386 27.1921V21.358Z" fill="white"/>
<path d="M11.3737 2.00016H6.24C3.89831 2.00016 2 3.89847 2 6.24016V11.3739M33.9995 11.3737V6.24C33.9995 3.89831 32.1012 2 29.7595 2L24.6258 2M24.6258 34H29.7595C32.1012 34 33.9995 32.1017 33.9995 29.76L33.9995 24.6263M2 24.6263L2 29.76C2 32.1017 3.89831 34 6.24 34H11.3737" stroke="white" stroke-width="2.12" stroke-linecap="round" stroke-linejoin="round"/>
</svg>
