<svg width="33" height="33" viewBox="0 0 33 33" fill="none" xmlns="http://www.w3.org/2000/svg">
    <path d="M22.4274 1.74532C22.4274 1.30056 22.788 0.940002 23.2324 0.940002H28.1083C30.7771 0.940002 32.9398 3.1033 32.9398 5.7719V10.6472C32.9398 11.092 32.5792 11.4526 32.1348 11.4526C31.6904 11.4526 31.3298 11.092 31.3298 10.6472V5.7719C31.3298 3.99287 29.8875 2.55064 28.1083 2.55064H23.2324C22.788 2.55064 22.4274 2.19008 22.4274 1.74532Z" fill="white"/>
    <path d="M0.94043 5.77206C0.94043 3.10346 3.10315 0.940142 5.77186 0.940142H10.6478C11.0922 0.940142 11.4528 1.3007 11.4528 1.74546C11.4528 2.19022 11.0922 2.55077 10.6478 2.55077H5.77186C3.99272 2.55077 2.55041 3.99301 2.55041 5.77206V10.6474C2.55041 11.0921 2.18984 11.4527 1.74542 11.4527C1.30101 11.4527 0.94043 11.0921 0.94043 10.6474V5.77206Z" fill="white"/>
    <path d="M32.1348 22.4274C32.5792 22.4274 32.9398 22.788 32.9398 23.2328V28.1081C32.9398 30.7767 30.7771 32.94 28.1083 32.94H23.2324C22.788 32.94 22.4274 32.5794 22.4274 32.1347C22.4274 31.6899 22.788 31.3294 23.2324 31.3294H28.1083C29.8875 31.3294 31.3298 29.8872 31.3298 28.1081V23.2328C31.3298 22.788 31.6904 22.4274 32.1348 22.4274Z" fill="white"/>
    <path d="M1.74542 22.4274C2.18984 22.4274 2.55041 22.788 2.55041 23.2328V28.1081C2.55041 29.8872 3.99272 31.3294 5.77186 31.3294H10.6478C11.0922 31.3294 11.4528 31.6899 11.4528 32.1347C11.4528 32.5794 11.0922 32.94 10.6478 32.94H5.77186C3.10315 32.94 0.94043 30.7767 0.94043 28.1081V23.2328C0.94043 22.788 1.30101 22.4274 1.74542 22.4274Z" fill="white"/>
    <path d="M18.2466 7.06754C18.2466 5.80652 19.269 4.78426 20.5296 4.78426H26.8129C28.0742 4.78426 29.0966 5.80652 29.0966 7.06754V13.351C29.0966 14.612 28.0742 15.6343 26.8129 15.6343H20.5296C19.269 15.6343 18.2466 14.612 18.2466 13.351V7.06754Z" fill="white"/>
    <path d="M4.78436 7.06758C4.78436 5.80656 5.80674 4.78428 7.06801 4.78428H13.3514C14.6119 4.78428 15.6343 5.80656 15.6343 7.06758V13.351C15.6343 14.612 14.6119 15.6343 13.3514 15.6343H7.06801C5.80674 15.6343 4.78436 14.612 4.78436 13.351V7.06758Z" fill="white"/>
    <path d="M5.53222 18.8393C5.07297 19.257 4.78436 19.8593 4.78436 20.529V26.8125C4.78436 28.0735 5.80674 29.0957 7.06801 29.0957H13.3514C14.6119 29.0957 15.6343 28.0735 15.6343 26.8125V20.529C15.6343 19.8593 15.3457 19.257 14.8864 18.8393H18.9945C18.5353 19.257 18.2466 19.8593 18.2466 20.529V26.8125C18.2466 28.0735 19.269 29.0957 20.5296 29.0957H26.8129C28.0742 29.0957 29.0966 28.0735 29.0966 26.8125V20.529C29.0966 19.8593 28.808 19.257 28.3487 18.8393H32.1348V17.6997H1.74542V18.8393H5.53222Z" fill="white"/>
</svg>