<svg width="22" height="13" viewBox="0 0 22 13" fill="none" xmlns="http://www.w3.org/2000/svg">
<path d="M0.888672 0.046875H5.36395C6.28153 0.046875 7.06999 0.184238 7.72933 0.458963C8.39417 0.733688 8.90516 1.14028 9.2623 1.67874C9.61944 2.2172 9.79801 2.87929 9.79801 3.66501C9.79801 4.30786 9.68812 4.86006 9.46834 5.3216C9.25406 5.77764 8.94911 6.15951 8.55351 6.4672C8.1634 6.7694 7.70461 7.01116 7.17713 7.19248L6.39417 7.60457H2.50406L2.48757 5.676H5.38043C5.8145 5.676 6.17439 5.59907 6.4601 5.44523C6.74581 5.29138 6.9601 5.07709 7.10296 4.80237C7.25131 4.52764 7.32549 4.20896 7.32549 3.84633C7.32549 3.46171 7.25406 3.12929 7.1112 2.84907C6.96834 2.56885 6.75131 2.35457 6.4601 2.20622C6.16889 2.05786 5.80351 1.98369 5.36395 1.98369H3.3612V12.0469H0.888672V0.046875ZM7.59746 12.0469L4.8612 6.69797L7.47384 6.68149L10.2431 11.9315V12.0469H7.59746Z" fill="black"/>
<path d="M19.7046 4.93424V6.86281H13.4409V4.93424H19.7046ZM14.1744 0.046875V12.0469H11.7019V0.046875H14.1744ZM21.4683 0.046875V12.0469H19.0041V0.046875H21.4683Z" fill="black"/>
</svg>
