<svg width="14" height="24" viewBox="0 0 14 24" fill="none" xmlns="http://www.w3.org/2000/svg">
<path d="M7.6377 15.5781V10.3636C7.6377 10.0743 7.52277 9.7968 7.31818 9.59222C7.1136 9.38763 6.83612 9.2727 6.5468 9.2727C6.25747 9.2727 5.98 9.38763 5.77541 9.59222C5.57083 9.7968 5.45589 10.0743 5.45589 10.3636V15.5781C5.12614 15.7685 4.85195 16.0419 4.66057 16.371C4.46919 16.7002 4.36728 17.0737 4.36499 17.4545C4.36499 18.0331 4.59485 18.5881 5.00402 18.9973C5.41319 19.4064 5.96814 19.6363 6.5468 19.6363C7.12545 19.6363 7.6804 19.4064 8.08957 18.9973C8.49874 18.5881 8.72861 18.0331 8.72861 17.4545C8.72631 17.0737 8.62441 16.7002 8.43303 16.371C8.24165 16.0419 7.96746 15.7685 7.6377 15.5781ZM11.4559 13.0909V4.90908C11.4559 3.60711 10.9387 2.35847 10.018 1.43784C9.09741 0.517205 7.84877 0 6.5468 0C5.24483 0 3.99619 0.517205 3.07556 1.43784C2.15493 2.35847 1.63772 3.60711 1.63772 4.90908V13.0909C0.883733 13.9453 0.365864 14.9817 0.135338 16.0977C-0.095187 17.2136 -0.0303805 18.3704 0.323348 19.4536C0.677076 20.5369 1.30747 21.509 2.15217 22.2738C2.99687 23.0387 4.02661 23.5697 5.13953 23.8145C5.60184 23.9199 6.07297 23.9819 6.5468 23.9999C7.81293 24.0058 9.0536 23.6444 10.1184 22.9594C11.1833 22.2744 12.0266 21.2952 12.5462 20.1406C13.0658 18.986 13.2393 17.7054 13.0458 16.4541C12.8523 15.2029 12.3 14.0346 11.4559 13.0909ZM9.27406 20.8036C8.40608 21.5732 7.26793 21.9665 6.10998 21.8969C4.95203 21.8273 3.86914 21.3006 3.09953 20.4327C2.32993 19.5647 1.93664 18.4265 2.0062 17.2686C2.07576 16.1106 2.60246 15.0277 3.47044 14.2581C3.57352 14.1571 3.65552 14.0366 3.7117 13.9037C3.76788 13.7707 3.79711 13.6279 3.79771 13.4836V4.90908C3.79771 4.18576 4.08505 3.49207 4.59651 2.98061C5.10797 2.46915 5.80166 2.18181 6.52498 2.18181C7.24829 2.18181 7.94198 2.46915 8.45345 2.98061C8.96491 3.49207 9.25224 4.18576 9.25224 4.90908V13.5709C9.25284 13.7152 9.28208 13.858 9.33826 13.9909C9.39443 14.1239 9.47644 14.2444 9.57952 14.3454C10.0254 14.7762 10.3744 15.297 10.6032 15.8733C10.8321 16.4495 10.9355 17.0679 10.9066 17.6872C10.8777 18.3065 10.7171 18.9126 10.4356 19.465C10.1541 20.0174 9.75815 20.5035 9.27406 20.8908V20.8036Z" fill="black"/>
</svg>
