<svg width="24" height="24" viewBox="0 0 24 24" fill="none" xmlns="http://www.w3.org/2000/svg">
<path d="M0 10.5C0 12.9844 2.01562 15 4.5 15H6.7125L13.5938 9.49219C14.4188 8.83125 15.5906 8.83594 16.4156 9.50156C17.2406 10.1672 17.4844 11.3109 17.0156 12.2578L15.6422 15H16.5H19.5C21.9844 15 24 12.9844 24 10.5C24 8.01562 21.9844 6 19.5 6C19.4766 6 19.4484 6 19.425 6C19.4766 5.75625 19.5 5.50781 19.5 5.25C19.5 3.17812 17.8219 1.5 15.75 1.5C14.6109 1.5 13.5891 2.01094 12.9 2.8125C12.0234 1.13906 10.2703 0 8.25 0C5.34844 0 3 2.34844 3 5.25C3 5.58281 3.03281 5.91094 3.08906 6.225C1.29375 6.81563 0 8.50781 0 10.5ZM15.4734 10.6688C15.2016 10.4484 14.8078 10.4484 14.5312 10.6641L7.03125 16.6641C6.78281 16.8609 6.68437 17.1984 6.79219 17.4984C6.9 17.7984 7.18125 18 7.5 18H10.7859L8.32969 22.9125C8.17031 23.2266 8.25469 23.6109 8.53125 23.8312C8.80781 24.0516 9.19688 24.0516 9.47344 23.8359L16.9734 17.8359C17.2219 17.6391 17.3203 17.3016 17.2125 17.0016C17.1047 16.7016 16.8234 16.5 16.5047 16.5H13.2141L15.6703 11.5875C15.8297 11.2734 15.7453 10.8891 15.4734 10.6688Z" fill="black"/>
</svg>
