<svg width="512" height="512" viewBox="0 0 512 512" fill="none" xmlns="http://www.w3.org/2000/svg">
<path d="M256 103.771C172.914 103.771 105.371 171.314 105.257 254.4C105.257 282.857 113.257 310.629 128.343 334.514L131.886 340.229L116.686 395.771L173.714 380.8L179.2 384.114C202.286 397.829 228.8 405.143 255.886 405.143H256C338.971 405.143 408.343 337.6 408.343 254.514C408.343 214.286 390.971 176.457 362.514 148C333.943 119.429 296.229 103.771 256 103.771ZM344.571 319.086C340.8 329.714 322.743 339.314 314.057 340.571C299.657 342.743 288.457 341.6 259.771 329.257C214.4 309.6 184.686 263.886 182.4 260.914C180.114 257.943 163.886 236.343 163.886 214.057C163.886 191.771 175.543 180.8 179.771 176.229C183.886 171.657 188.8 170.514 191.886 170.514C194.857 170.514 197.943 170.514 200.571 170.629C203.314 170.743 207.086 169.6 210.743 178.4C214.514 187.429 223.543 209.714 224.686 212C225.829 214.286 226.629 216.914 225.029 219.886C216.343 237.257 207.086 236.571 211.771 244.571C229.257 274.629 246.743 285.029 273.371 298.4C277.943 300.686 280.571 300.343 283.2 297.257C285.829 294.286 294.514 284 297.486 279.543C300.457 274.971 303.543 275.771 307.657 277.257C311.771 278.743 334.057 289.714 338.629 292C343.2 294.286 346.171 295.429 347.314 297.257C348.343 299.429 348.343 308.571 344.571 319.086ZM457.143 0H54.8571C24.5714 0 0 24.5714 0 54.8571V457.143C0 487.429 24.5714 512 54.8571 512H457.143C487.429 512 512 487.429 512 457.143V54.8571C512 24.5714 487.429 0 457.143 0ZM255.886 435.657C225.486 435.657 195.657 428 169.257 413.6L73.1429 438.857L98.8571 344.914C82.9714 317.486 74.6286 286.286 74.6286 254.286C74.7429 154.4 156 73.1429 255.886 73.1429C304.343 73.1429 349.829 92 384.114 126.286C418.286 160.571 438.857 206.057 438.857 254.514C438.857 354.4 355.771 435.657 255.886 435.657Z" fill="#F01421"/>
</svg>
