<?xml version="1.0" encoding="utf-8"?>
<!-- Generator: Adobe Illustrator 28.2.0, SVG Export Plug-In . SVG Version: 6.00 Build 0)  -->
<svg version="1.1" id="Layer_1" xmlns="http://www.w3.org/2000/svg" xmlns:xlink="http://www.w3.org/1999/xlink" x="0px" y="0px"
	 viewBox="0 0 210 100" style="enable-background:new 0 0 210 100;" xml:space="preserve">
<style type="text/css">
	.st0{fill:#2898FF;}
</style>
<g>
	<path class="st0" d="M32.34,70.74v-4.8h-0.17c-2.59,4.36-6.59,6.53-11.99,6.53c-5.18,0-9.54-1.74-13.07-5.21
		c-3.53-3.47-5.29-8.63-5.29-15.47V31.04h9.84V51.8c0,3.8,0.91,6.67,2.73,8.6c1.87,1.93,4.41,2.89,7.61,2.89
		c3.14,0,5.65-0.99,7.53-2.98c1.87-1.99,2.81-4.82,2.81-8.52V31.04h9.84v39.45c0,6.73-1.87,11.72-5.62,14.97
		c-3.75,3.31-8.66,4.96-14.72,4.96c-4.96,0-9.21-1.19-12.74-3.56c-3.53-2.32-5.85-5.82-6.95-10.5H12c1.6,3.69,4.88,5.54,9.84,5.54
		C28.84,81.91,32.34,78.18,32.34,70.74z M93.76,51.8v20.1h-9.02v-7.61h-0.17c-1.16,2.65-3.01,4.77-5.54,6.37
		c-2.54,1.54-5.51,2.32-8.93,2.32c-5.35,0-10.06-1.87-14.14-5.62c-4.03-3.8-6.04-9.1-6.04-15.88c0-6.23,2.04-11.36,6.12-15.38
		c4.14-4.08,9.43-6.12,15.88-6.12c6.51,0,11.77,2.01,15.8,6.04C91.75,39.97,93.76,45.24,93.76,51.8z M83.92,51.47
		c0-3.64-1.1-6.59-3.31-8.85c-2.21-2.32-5.1-3.47-8.68-3.47c-3.58,0-6.51,1.16-8.77,3.47c-2.21,2.26-3.31,5.21-3.31,8.85
		c0,3.64,1.1,6.62,3.31,8.93c2.26,2.26,5.18,3.39,8.77,3.39c3.58,0,6.48-1.13,8.68-3.39C82.82,58.08,83.92,55.11,83.92,51.47z
		 M125.48,55.11v1.08c0,5.07-2.29,7.61-6.87,7.61s-6.87-2.54-6.87-7.61V39.97h21.09v-8.93h-21.09V17.39h-9.84v38.79
		c0,5.51,1.49,9.7,4.47,12.57c3.03,2.81,7.11,4.22,12.24,4.22s9.18-1.41,12.16-4.22c3.03-2.87,4.55-7.06,4.55-12.57v-1.08H125.48z
		 M169.51,60.9c-1.82,1.93-4.33,2.89-7.53,2.89s-5.73-0.96-7.61-2.89c-1.82-1.93-2.73-4.8-2.73-8.6V31.04
		c-5.44,0-9.84,4.41-9.84,9.84v11.41c0,6.73,1.82,11.86,5.46,15.38c3.64,3.53,8.55,5.29,14.72,5.29s11.08-1.76,14.72-5.29
		c3.64-3.58,5.46-8.71,5.46-15.38V40.88c0-5.44-4.41-9.84-9.84-9.84v21.26C172.32,56.1,171.39,58.97,169.51,60.9z M196.13,7.25
		c-5.81-4.44-12.44-6.5-19.72-6.6c-2.43-0.03-4.18,1.56-4.2,3.77c-0.02,2.17,1.66,3.79,4.05,3.84c2.09,0.05,4.15,0.23,6.18,0.74
		c8.1,2.07,13.67,6.98,16.62,14.82c1.08,2.87,1.43,5.86,1.52,8.9c0.06,2.27,1.69,3.89,3.81,3.89c2.15,0,3.77-1.69,3.8-3.99
		c0.01-0.69-0.07-1.38-0.1-2.08c-0.43-8.04-3.45-14.95-9.03-20.75C198.18,8.83,197.15,8.03,196.13,7.25z M194.1,32.11
		c-0.17-1.99-0.56-3.91-1.23-5.8c-2.76-7.71-9.93-11.54-17.27-11.61c-1.81-0.02-3.21,1.14-3.64,2.76c-0.69,2.56,1.08,4.75,3.92,4.84
		c5.93,0.19,9.76,3.67,10.54,9.57c0.09,0.72,0.08,1.45,0.22,2.16c0.29,1.41,1.17,2.36,2.54,2.79c1.41,0.44,2.67,0.11,3.4-0.53
		C194.07,34.89,194.22,33.54,194.1,32.11z"/>
	<path class="st0" d="M203.34,75.94h-36.51c-2.67,0-4.84,2.17-4.84,4.84v13.74c0,2.67,2.17,4.84,4.84,4.84h36.51
		c2.67,0,4.84-2.17,4.84-4.84V80.78C208.18,78.11,206.01,75.94,203.34,75.94z M175.47,93.98h-9.2V81.89h3.42v9.19h5.78V93.98z
		 M180.8,93.98h-3.4V81.89h3.4V93.98z M193.18,84.71h-3.54v9.27h-3.4v-9.27h-3.52v-2.81h10.46V84.71z M204.77,93.98h-9.67V81.89
		h9.43v2.87h-6.06v1.73h5.71v2.78h-5.71v1.83h6.3V93.98z"/>
</g>
</svg>
