<?xml version="1.0" encoding="utf-8"?>
<!-- Generator: Adobe Illustrator 28.2.0, SVG Export Plug-In . SVG Version: 6.00 Build 0)  -->
<svg version="1.1" id="Layer_1" xmlns="http://www.w3.org/2000/svg" xmlns:xlink="http://www.w3.org/1999/xlink" x="0px" y="0px"
	 viewBox="0 0 210 100" style="enable-background:new 0 0 210 100;" xml:space="preserve">
<path class="st0" d="M130.7,68.7c-3,2.8-7,4.2-12.2,4.2c-5.1,0-9.2-1.4-12.2-4.2c-3-2.9-4.5-7.1-4.5-12.6V17.4h9.8V31h21.1V40h-21.1
	v16.2c0,5.1,2.3,7.6,6.9,7.6c4.6,0,6.9-2.5,6.9-7.6v-1.1h9.8v1.1C135.3,61.7,133.7,65.9,130.7,68.7z M32.3,51.8
	c0,3.7-0.9,6.5-2.8,8.5c-1.9,2-4.4,3-7.5,3c-3.2,0-5.7-1-7.6-2.9c-1.8-1.9-2.7-4.8-2.7-8.6V31H1.8v20.8c0,6.8,1.8,12,5.3,15.5
	c3.5,3.5,7.9,5.2,13.1,5.2c5.4,0,9.4-2.2,12-6.5h0.2v4.8c0,7.4-3.5,11.2-10.5,11.2c-5,0-8.2-1.8-9.8-5.5H2.2
	c1.1,4.7,3.4,8.2,6.9,10.5c3.5,2.4,7.8,3.6,12.7,3.6c6.1,0,11-1.7,14.7-5c3.7-3.3,5.6-8.2,5.6-15V31h-9.8V51.8z M87.7,36
	c4,4,6,9.2,6,15.8v20.1h-9v-7.6h-0.2c-1.2,2.6-3,4.8-5.5,6.4c-2.5,1.5-5.5,2.3-8.9,2.3c-5.3,0-10.1-1.9-14.1-5.6
	c-4-3.8-6-9.1-6-15.9c0-6.2,2-11.4,6.1-15.4C60.2,32,65.4,30,71.9,30C78.4,30,83.7,32,87.7,36z M83.9,51.5c0-3.6-1.1-6.6-3.3-8.8
	c-2.2-2.3-5.1-3.5-8.7-3.5c-3.6,0-6.5,1.2-8.8,3.5c-2.2,2.3-3.3,5.2-3.3,8.8c0,3.6,1.1,6.6,3.3,8.9c2.3,2.3,5.2,3.4,8.8,3.4
	c3.6,0,6.5-1.1,8.7-3.4C82.8,58.1,83.9,55.1,83.9,51.5z M176.2,8.3c2.1,0,4.2,0.2,6.2,0.7c8.1,2.1,13.7,7,16.6,14.8
	c1.1,2.9,1.4,5.9,1.5,8.9c0.1,2.3,1.7,3.9,3.8,3.9c2.1,0,3.8-1.7,3.8-4c0-0.7-0.1-1.4-0.1-2.1c-0.4-8-3.4-14.9-9-20.7
	c-0.9-1-1.9-1.8-2.9-2.6c-5.8-4.4-12.4-6.5-19.7-6.6c-2.4,0-4.2,1.6-4.2,3.8C172.1,6.6,173.8,8.2,176.2,8.3z M161.9,73
	c6.2,0,11.1-1.8,14.7-5.3c3.6-3.6,5.5-8.7,5.5-15.4V40.9c0-5.4-4.4-9.8-9.8-9.8v21.2c0,3.8-0.9,6.7-2.8,8.6
	c-1.8,1.9-4.3,2.9-7.5,2.9c-3.2,0-5.7-1-7.6-2.9c-1.8-1.9-2.7-4.8-2.7-8.6V31c-5.4,0-9.8,4.4-9.8,9.8v11.4c0,6.7,1.8,11.9,5.5,15.4
	C150.8,71.2,155.7,73,161.9,73z M175.8,22.3c5.9,0.2,9.8,3.7,10.5,9.6c0.1,0.7,0.1,1.5,0.2,2.2c0.3,1.4,1.2,2.4,2.5,2.8
	c1.4,0.4,2.7,0.1,3.4-0.5c1.5-1.4,1.6-2.7,1.5-4.2c-0.2-2-0.6-3.9-1.2-5.8c-2.8-7.7-9.9-11.5-17.3-11.6c-1.8,0-3.2,1.1-3.6,2.8
	C171.2,20,173,22.2,175.8,22.3z M199.4,84.6h-2.5v2.9h2.5c0.9,0,1.3-0.7,1.3-1.4C200.7,85.3,200.3,84.6,199.4,84.6z M208.1,80.8
	v13.7c0,2.7-2.2,4.8-4.8,4.8H131c-2.7,0-4.8-2.2-4.8-4.8V80.8c0-2.7,2.2-4.8,4.8-4.8h72.3C205.9,75.9,208.1,78.1,208.1,80.8z
	 M142.9,81.9h-3.8l-1.4,3.6l-1.5,4.5l-1.5-4.5l-1.4-3.6h-3.8l5,12.1h3.3L142.9,81.9z M147.8,81.9h-3.4V94h3.4V81.9z M160.3,91.1H154
	v-1.8h5.7v-2.8H154v-1.7h6.1v-2.9h-9.4V94h9.7V91.1z M179.9,81.9h-3.7l-1.4,4.2c-0.3,1-0.5,2-0.7,2.9l-2.3-7h-2.4l-2.2,7
	c-0.2-0.9-0.3-1.9-0.6-2.8l-1.6-4.2h-3.7l4.5,12.1h2.8l2.1-5.8l2.1,5.8h2.8L179.9,81.9z M191.1,91.1h-6.3v-1.8h5.7v-2.8h-5.7v-1.7
	h6.1v-2.9h-9.4V94h9.7V91.1z M204.7,93.7l-3.1-4.1c2-0.9,2.6-2.2,2.6-3.6c0-2.2-1.6-4.2-4.7-4.2h-5.9V94h3.4V90h1.2l2.8,3.9h3.8
	V93.7z" fill="#2898FF"/>
</svg>
