<svg width="219" height="75" viewBox="0 0 219 75" fill="none" xmlns="http://www.w3.org/2000/svg">
<path d="M0.121627 0.272725H22.1387L31.3716 29.8182H32.0819L51.1159 0.272725H73.133L38.1898 50.1307L34.3546 73H14.7523L18.5875 50.1307L0.121627 0.272725ZM70.0435 73.8523C66.5871 73.8523 63.6159 73.2841 61.1301 72.1477C58.668 70.9877 56.8688 69.2358 55.7324 66.892C54.6197 64.5246 54.3712 61.5417 54.9867 57.9432C55.4838 54.9602 56.419 52.4152 57.7921 50.3082C59.1652 48.2012 60.8697 46.473 62.9057 45.1236C64.9417 43.7741 67.2263 42.7443 69.7594 42.0341C72.3162 41.3002 75.0151 40.8267 77.856 40.6136C80.9337 40.3769 83.4313 40.081 85.3489 39.7259C87.2665 39.3707 88.6988 38.8854 89.6458 38.2699C90.5927 37.6544 91.1609 36.8258 91.3503 35.7841V35.642C91.5634 34.2216 91.1846 33.1326 90.214 32.375C89.267 31.6174 87.9412 31.2386 86.2367 31.2386C84.3901 31.2386 82.7921 31.6411 81.4426 32.446C80.1169 33.2509 79.2054 34.5057 78.7083 36.2102H60.6685C61.4261 32.8958 62.9767 29.8419 65.3205 27.0483C67.6879 24.2311 70.8248 21.982 74.731 20.3011C78.6609 18.5966 83.3484 17.7443 88.7935 17.7443C92.6761 17.7443 96.0852 18.206 99.0208 19.1293C101.956 20.0289 104.383 21.2955 106.301 22.929C108.242 24.5388 109.603 26.4328 110.384 28.6108C111.189 30.7652 111.379 33.1089 110.953 35.642L104.703 73H86.3787L87.6571 65.3295H87.231C85.8105 67.3655 84.2125 69.0109 82.437 70.2656C80.6851 71.5204 78.7675 72.4318 76.6841 73C74.6245 73.5682 72.4109 73.8523 70.0435 73.8523ZM78.5662 61.4943C80.034 61.4943 81.4782 61.1866 82.8986 60.571C84.3191 59.9555 85.5383 59.0677 86.5563 57.9077C87.5743 56.7476 88.2253 55.339 88.5094 53.6818L89.2196 49.1364C88.6988 49.3494 88.1188 49.5507 87.4796 49.7401C86.8641 49.9058 86.213 50.0715 85.5265 50.2372C84.8636 50.4029 84.1533 50.5568 83.3958 50.6989C82.6619 50.8409 81.9043 50.983 81.123 51.125C79.5605 51.3617 78.2466 51.7524 77.1813 52.2969C76.1159 52.8177 75.2873 53.4688 74.6955 54.25C74.1036 55.0076 73.7367 55.8598 73.5946 56.8068C73.3816 58.2983 73.7248 59.4583 74.6245 60.2869C75.5478 61.0919 76.8617 61.4943 78.5662 61.4943ZM155.688 18.4545L153.273 32.6591H117.336L119.751 18.4545H155.688ZM128.841 5.38636H148.444L140.134 55.4574C140.016 56.215 140.039 56.8542 140.205 57.375C140.371 57.8722 140.702 58.2509 141.199 58.5114C141.72 58.7481 142.407 58.8665 143.259 58.8665C143.827 58.8665 144.526 58.7955 145.354 58.6534C146.183 58.4877 146.81 58.3693 147.236 58.2983L147.805 72.0767C146.81 72.3608 145.473 72.6804 143.792 73.0355C142.135 73.4143 140.205 73.6629 138.003 73.7812C133.411 73.9943 129.67 73.509 126.782 72.3253C123.917 71.1416 121.929 69.295 120.816 66.7855C119.727 64.2524 119.537 61.0919 120.248 57.304L128.841 5.38636ZM193.943 49.1364L199.056 18.4545H218.659L209.568 73H190.96L192.664 62.6307H192.096C190.415 66.1108 187.906 68.8333 184.568 70.7983C181.253 72.7396 177.56 73.7102 173.488 73.7102C169.677 73.7102 166.492 72.8343 163.936 71.0824C161.379 69.3305 159.568 66.9157 158.502 63.8381C157.437 60.7604 157.224 57.233 157.863 53.2557L163.687 18.4545H183.289L178.176 49.1364C177.773 51.8352 178.116 53.9541 179.205 55.4929C180.318 57.0317 182.106 57.8011 184.568 57.8011C186.201 57.8011 187.669 57.4579 188.971 56.7713C190.297 56.0611 191.386 55.0668 192.238 53.7884C193.114 52.4863 193.682 50.9356 193.943 49.1364Z" fill="url(#paint0_linear_11_89)"/>
<defs>
<linearGradient id="paint0_linear_11_89" x1="-22.5" y1="37" x2="245.5" y2="37" gradientUnits="userSpaceOnUse">
<stop stop-color="#FF0000"/>
<stop offset="1"/>
</linearGradient>
</defs>
</svg>
