<svg width="142" height="62" viewBox="0 0 142 62" fill="none" xmlns="http://www.w3.org/2000/svg">
<path d="M20.9672 48.1554V44.8598H20.8535C19.0731 47.8524 16.3267 49.3487 12.6144 49.3487C9.05358 49.3487 6.06097 48.1554 3.63658 45.7689C1.21219 43.3824 0 39.8405 0 35.1433V20.881H6.76177V35.1433C6.76177 37.7571 7.38681 39.7269 8.63689 41.0527C9.92484 42.3785 11.6674 43.0415 13.8645 43.0415C16.0237 43.0415 17.7473 42.3596 19.0352 40.9959C20.3232 39.6322 20.9672 37.6813 20.9672 35.1433V20.881H27.7289V47.9849C27.7289 52.6064 26.441 56.0347 23.8651 58.2697C21.2892 60.5425 17.9177 61.679 13.7508 61.679C10.3415 61.679 7.42469 60.8645 5.0003 59.2356C2.57591 57.6446 0.984908 55.2392 0.227287 52.0193H6.98906C8.08761 54.5573 10.3415 55.8263 13.7508 55.8263C18.5617 55.8263 20.9672 53.2694 20.9672 48.1554Z" fill="#2898FF"/>
<path d="M63.1608 35.1433V48.9509H56.9672V43.7233H56.8536C56.0581 45.5416 54.7891 47 53.0465 48.0986C51.304 49.1593 49.2584 49.6896 46.9098 49.6896C43.2353 49.6896 39.9965 48.4016 37.1933 45.8257C34.428 43.2119 33.0453 39.5753 33.0453 34.916C33.0453 30.6354 34.4469 27.1125 37.2501 24.3472C40.0912 21.544 43.7278 20.1424 48.1599 20.1424C52.6298 20.1424 56.2475 21.525 59.0128 24.2903C61.7781 27.0178 63.1608 30.6354 63.1608 35.1433ZM42.1368 41.0527C43.6899 42.6058 45.6976 43.3824 48.1599 43.3824C50.6221 43.3824 52.6109 42.6058 54.1261 41.0527C55.6414 39.4617 56.399 37.4161 56.399 34.916C56.399 32.4158 55.6414 30.3892 54.1261 28.8361C52.6109 27.2451 50.6221 26.4496 48.1599 26.4496C45.6976 26.4496 43.6899 27.2451 42.1368 28.8361C40.6215 30.3892 39.8639 32.4158 39.8639 34.916C39.8639 37.4161 40.6215 39.4617 42.1368 41.0527Z" fill="#2898FF"/>
<path d="M91.7079 37.4161V38.1548C91.7079 41.9429 90.6661 44.8219 88.5827 46.7917C86.5371 48.7236 83.7528 49.6896 80.2299 49.6896C76.707 49.6896 73.9038 48.7236 71.8203 46.7917C69.7747 44.8219 68.7519 41.9429 68.7519 38.1548V11.5055H75.5137V20.881H90.0032V27.0178H75.5137V38.1548C75.5137 41.6399 77.0858 43.3824 80.2299 43.3824C83.374 43.3824 84.9461 41.6399 84.9461 38.1548V37.4161H91.7079Z" fill="#2898FF"/>
<path d="M117.131 35.4842V20.881C120.866 20.881 123.893 23.9084 123.893 27.6428V35.4842C123.893 40.0678 122.643 43.5907 120.143 46.053C117.642 48.4774 114.271 49.6896 110.028 49.6896C105.786 49.6896 102.414 48.4774 99.9141 46.053C97.414 43.6286 96.1639 40.1057 96.1639 35.4842V27.6428C96.1639 23.9084 99.1913 20.881 102.926 20.881V35.4842C102.926 38.098 103.551 40.0678 104.801 41.3936C106.089 42.7195 107.831 43.3824 110.028 43.3824C112.226 43.3824 113.949 42.7195 115.199 41.3936C116.487 40.0678 117.131 38.098 117.131 35.4842Z" fill="#2898FF"/>
<path d="M135.488 6.29238C139.319 10.2738 141.395 15.0208 141.689 20.5454C141.713 21.0206 141.765 21.4967 141.759 21.9709C141.739 23.5499 140.625 24.7079 139.148 24.7088C137.697 24.7097 136.576 23.5995 136.533 22.0389C136.477 19.948 136.234 17.8939 135.493 15.9252C133.467 10.5394 129.639 7.16366 124.077 5.74093C122.687 5.38525 121.267 5.26118 119.833 5.22993C118.192 5.19408 117.037 4.08292 117.053 2.59126C117.069 1.06927 118.272 -0.0235116 119.941 0.000384363C124.938 0.0693151 129.492 1.48469 133.486 4.53786C134.188 5.0746 134.891 5.62329 135.488 6.29238Z" fill="#2898FF"/>
<path d="M131.048 24.4871C130.548 24.9264 129.682 25.1553 128.714 24.8511C127.772 24.556 127.166 23.908 126.967 22.9375C126.869 22.4531 126.879 21.9485 126.815 21.4559C126.282 17.4044 123.647 15.0156 119.575 14.8833C117.626 14.8199 116.41 13.3171 116.882 11.5561C117.181 10.443 118.142 9.6471 119.383 9.65813C124.423 9.70224 129.348 12.3364 131.246 17.6333C131.711 18.9292 131.979 20.2546 132.093 21.6185C132.175 22.5992 132.072 23.5275 131.048 24.4871Z" fill="#2898FF"/>
</svg>
