<?xml version="1.0" encoding="utf-8"?>
<!-- Generator: Adobe Illustrator 28.2.0, SVG Export Plug-In . SVG Version: 6.00 Build 0)  -->
<svg version="1.1" id="Layer_1" xmlns="http://www.w3.org/2000/svg" xmlns:xlink="http://www.w3.org/1999/xlink" x="0px" y="0px"
	 viewBox="0 0 210 100" style="enable-background:new 0 0 210 100;" xml:space="preserve">
<path class="st0" d="M71.9,30c-6.4,0-11.7,2-15.9,6.1c-4.1,4-6.1,9.1-6.1,15.4c0,6.8,2,12.1,6,15.9C60,71.1,64.7,73,70,73
	c3.4,0,6.4-0.8,8.9-2.3c2.5-1.6,4.4-3.7,5.5-6.4h0.2v7.6h9V51.8c0-6.6-2-11.8-6-15.8C83.7,32,78.4,30,71.9,30z M80.6,60.4
	c-2.2,2.3-5.1,3.4-8.7,3.4s-6.5-1.1-8.8-3.4c-2.2-2.3-3.3-5.3-3.3-8.9c0-3.6,1.1-6.6,3.3-8.8c2.3-2.3,5.2-3.5,8.8-3.5
	s6.5,1.2,8.7,3.5s3.3,5.2,3.3,8.8C83.9,55.2,82.8,58.1,80.6,60.4z M125.4,55.2h9.8v1.1c0,5.5-1.5,9.7-4.5,12.6
	c-3,2.8-7,4.2-12.2,4.2c-5.1,0-9.2-1.4-12.2-4.2c-3-2.9-4.5-7.1-4.5-12.6V17.5h9.8v13.6h21.1V40h-21.1v16.2c0,5.1,2.3,7.6,6.9,7.6
	s6.9-2.5,6.9-7.6L125.4,55.2L125.4,55.2z M172.2,4.5c0-2.2,1.8-3.8,4.2-3.8c7.3,0.1,13.9,2.2,19.7,6.6c1,0.8,2,1.6,2.9,2.6
	c5.6,5.8,8.6,12.7,9,20.7c0,0.7,0.1,1.4,0.1,2.1c0,2.3-1.6,4-3.8,4c-2.1,0-3.7-1.6-3.8-3.9c-0.1-3-0.4-6-1.5-8.9
	c-2.9-7.8-8.5-12.7-16.6-14.8c-2-0.5-4.1-0.7-6.2-0.7C173.8,8.3,172.1,6.7,172.2,4.5z M176.6,67.7c-3.6,3.5-8.5,5.3-14.7,5.3
	s-11.1-1.8-14.7-5.3c-3.6-3.5-5.5-8.7-5.5-15.4V40.9c0-5.4,4.4-9.8,9.8-9.8v21.2c0,3.8,0.9,6.7,2.7,8.6c1.9,1.9,4.4,2.9,7.6,2.9
	s5.7-1,7.5-2.9c1.9-1.9,2.8-4.8,2.8-8.6V31.1c5.4,0,9.8,4.4,9.8,9.8v11.4C182.1,59,180.3,64.1,176.6,67.7z M32.4,31.1h9.8v39.4
	c0,6.7-1.9,11.7-5.6,15c-3.7,3.3-8.7,5-14.7,5c-5,0-9.2-1.2-12.7-3.6c-3.5-2.3-5.8-5.8-6.9-10.5h9.8c1.6,3.7,4.9,5.5,9.8,5.5
	c7,0,10.5-3.7,10.5-11.2V66h-0.2c-2.6,4.4-6.6,6.5-12,6.5c-5.2,0-9.5-1.7-13.1-5.2c-3.5-3.5-5.3-8.6-5.3-15.5V31.1h9.8v20.7
	c0,3.8,0.9,6.7,2.7,8.6c1.9,1.9,4.4,2.9,7.6,2.9c3.1,0,5.6-1,7.5-3s2.8-4.8,2.8-8.5V31.1H32.4z M171.9,17.5c0.4-1.6,1.8-2.8,3.6-2.8
	c7.3,0.1,14.5,3.9,17.3,11.6c0.7,1.9,1.1,3.8,1.2,5.8c0.1,1.4,0,2.8-1.5,4.2c-0.7,0.6-2,1-3.4,0.5c-1.4-0.4-2.3-1.4-2.5-2.8
	c-0.1-0.7-0.1-1.4-0.2-2.2c-0.8-5.9-4.6-9.4-10.5-9.6C173,22.3,171.2,20.1,171.9,17.5z M173.4,86.4c0,0.8-0.5,1.5-1.4,1.5h-2.5v-3
	h2.5C172.9,84.8,173.4,85.6,173.4,86.4z M201.3,87.9c0,2-1.3,3.4-3.3,3.4c-1.9,0-3.3-1.4-3.3-3.4s1.3-3.4,3.3-3.4
	S201.3,85.9,201.3,87.9z M203.3,76h-36.5c-2.7,0-4.8,2.2-4.8,4.8v13.7c0,2.7,2.2,4.8,4.8,4.8h36.5c2.7,0,4.8-2.2,4.8-4.8V80.8
	C208.1,78.1,205.9,76,203.3,76z M172,90.7h-2.5V94h-3.4V81.9h5.9c3.3,0,4.9,2,4.9,4.4C176.9,88.8,175.2,90.7,172,90.7z M190,94h-3.8
	l-2.8-3.9h-1.2V94h-3.4V81.9h5.9c3.1,0,4.7,2,4.7,4.2c0,1.5-0.5,2.8-2.6,3.6l3.1,4.1V94H190z M198,94.3c-4,0-6.7-2.3-6.7-6.3
	s2.8-6.3,6.7-6.3c4,0,6.7,2.3,6.7,6.3S201.9,94.3,198,94.3z M186.1,86.1c0,0.7-0.4,1.4-1.3,1.4h-2.5v-2.9h2.5
	C185.6,84.6,186.1,85.4,186.1,86.1z" fill="#2898FF"/>
</svg>
