<svg width="227" height="75" viewBox="0 0 227 75" fill="none" xmlns="http://www.w3.org/2000/svg">
<path d="M0.727095 0.272725H22.7441L31.9771 29.8182H32.6873L51.7214 0.272725H73.7385L38.7953 50.1307L34.96 73H15.3578L19.193 50.1307L0.727095 0.272725ZM103.728 49.1364L108.841 18.4545H128.444L119.353 73H100.745L102.449 62.6307H101.881C100.2 66.1108 97.6909 68.8333 94.3528 70.7983C91.0384 72.7396 87.3452 73.7102 83.2733 73.7102C79.4617 73.7102 76.2775 72.8343 73.7207 71.0824C71.1639 69.3305 69.3528 66.9157 68.2875 63.8381C67.2221 60.7604 67.0091 57.233 67.6483 53.2557L73.4721 18.4545H93.0744L87.9608 49.1364C87.5583 51.8352 87.9016 53.9541 88.9906 55.4929C90.1033 57.0317 91.8907 57.8011 94.3528 57.8011C95.9863 57.8011 97.4541 57.4579 98.7562 56.7713C100.082 56.0611 101.171 55.0668 102.023 53.7884C102.899 52.4863 103.467 50.9356 103.728 49.1364ZM170.942 18.4545L168.527 32.6591H132.59L135.004 18.4545H170.942ZM144.095 5.38636H163.698L155.388 55.4574C155.27 56.215 155.293 56.8542 155.459 57.375C155.625 57.8722 155.956 58.2509 156.453 58.5114C156.974 58.7481 157.661 58.8665 158.513 58.8665C159.081 58.8665 159.78 58.7955 160.608 58.6534C161.437 58.4877 162.064 58.3693 162.49 58.2983L163.058 72.0767C162.064 72.3608 160.727 72.6804 159.046 73.0355C157.388 73.4143 155.459 73.6629 153.257 73.7812C148.664 73.9943 144.924 73.509 142.036 72.3253C139.171 71.1416 137.182 69.295 136.07 66.7855C134.981 64.2524 134.791 61.0919 135.502 57.304L144.095 5.38636ZM184.907 73.8523C181.45 73.8523 178.479 73.2841 175.993 72.1477C173.531 70.9877 171.732 69.2358 170.596 66.892C169.483 64.5246 169.234 61.5417 169.85 57.9432C170.347 54.9602 171.282 52.4152 172.655 50.3082C174.028 48.2012 175.733 46.473 177.769 45.1236C179.805 43.7741 182.09 42.7443 184.623 42.0341C187.18 41.3002 189.878 40.8267 192.719 40.6136C195.797 40.3769 198.295 40.081 200.212 39.7259C202.13 39.3707 203.562 38.8854 204.509 38.2699C205.456 37.6544 206.024 36.8258 206.214 35.7841V35.642C206.427 34.2216 206.048 33.1326 205.077 32.375C204.13 31.6174 202.805 31.2386 201.1 31.2386C199.253 31.2386 197.655 31.6411 196.306 32.446C194.98 33.2509 194.069 34.5057 193.572 36.2102H175.532C176.289 32.8958 177.84 29.8419 180.184 27.0483C182.551 24.2311 185.688 21.982 189.594 20.3011C193.524 18.5966 198.212 17.7443 203.657 17.7443C207.539 17.7443 210.948 18.206 213.884 19.1293C216.82 20.0289 219.246 21.2955 221.164 22.929C223.105 24.5388 224.466 26.4328 225.248 28.6108C226.053 30.7652 226.242 33.1089 225.816 35.642L219.566 73H201.242L202.52 65.3295H202.094C200.674 67.3655 199.076 69.0109 197.3 70.2656C195.548 71.5204 193.631 72.4318 191.547 73C189.488 73.5682 187.274 73.8523 184.907 73.8523ZM193.43 61.4943C194.897 61.4943 196.341 61.1866 197.762 60.571C199.182 59.9555 200.402 59.0677 201.42 57.9077C202.438 56.7476 203.089 55.339 203.373 53.6818L204.083 49.1364C203.562 49.3494 202.982 49.5507 202.343 49.7401C201.727 49.9058 201.076 50.0715 200.39 50.2372C199.727 50.4029 199.017 50.5568 198.259 50.6989C197.525 50.8409 196.768 50.983 195.986 51.125C194.424 51.3617 193.11 51.7524 192.045 52.2969C190.979 52.8177 190.151 53.4688 189.559 54.25C188.967 55.0076 188.6 55.8598 188.458 56.8068C188.245 58.2983 188.588 59.4583 189.488 60.2869C190.411 61.0919 191.725 61.4943 193.43 61.4943Z" fill="url(#paint0_linear_11_89)"/>
<defs>
<linearGradient id="paint0_linear_11_89" x1="-17.5" y1="37" x2="250.5" y2="37" gradientUnits="userSpaceOnUse">
<stop stop-color="#FF0000"/>
<stop offset="1"/>
</linearGradient>
</defs>
</svg>
